<?xml version="1.0" encoding="utf-8"?>
<!-- Generator: Adobe Illustrator 24.1.3, SVG Export Plug-In . SVG Version: 6.00 Build 0)  -->
<svg version="1.1" id="Layer_1" xmlns="http://www.w3.org/2000/svg" xmlns:xlink="http://www.w3.org/1999/xlink" x="0px" y="0px"
	 viewBox="0 0 396.85 396.85" style="enable-background:new 0 0 396.85 396.85;" xml:space="preserve">
<style type="text/css">
	.st0{fill:#272660;}
	.st1{fill:#A23B3E;}
	.st2{fill:#111232;}
	.st3{fill:#FDE5CE;}
	.st4{fill:#F3D2A6;}
	.st5{fill:#FCBF92;}
	.st6{fill:#FCC9A3;}
	.st7{fill:#531518;}
	.st8{fill:#66A7DB;}
	.st9{fill:#FBB784;}
	.st10{fill:#2B72AE;}
	.st11{fill:#E9E9E8;}
	.st12{fill:#FCC9A4;}
	.st13{fill:#64A6DA;}
	.st14{fill:#FBB684;}
	.st15{fill:#C5805D;}
	.st16{fill:#BB7154;}
	.st17{fill:#BB7153;}
	.st18{fill:#877F87;}
	.st19{fill:#BA7053;}
</style>
<g>
	<path class="st0" d="M186.38,1190.56c0.74-0.51,1.58-0.67,2.44-0.82c0.91-0.16,1.82-0.34,2.74-0.51c0.04,0.13,0.06,0.27,0.14,0.37
		c0.86,1.2,1.74,2.4,2.59,3.6c0.17,0.24,0.38,0.37,0.65,0.32c0.31-0.05,0.62-0.14,0.93-0.22c0.23,0.26,0.47,0.51,0.67,0.79
		c0.19,0.26,0.52,0.44,0.45,0.85c-0.1,0.61-0.17,1.22-0.25,1.83c-0.19,1.34-0.38,2.68-0.57,4.02c-0.12,0.85-0.25,1.71-0.37,2.56
		c-2.58,0-5.16,0-7.74,0c0-1.72,0-3.44,0-5.16c0-0.38-0.2-0.63-0.51-0.64c-0.36-0.01-0.59,0.24-0.61,0.64c0,0.06,0,0.12,0,0.19
		c0,1.66,0,3.32,0,4.98c-0.89,0-1.79,0-2.68,0c-0.06-0.04-0.11-0.09-0.17-0.12c-0.49-0.25-0.74-0.64-0.74-1.19
		c0-2.17,0-4.34,0.01-6.51c0-0.79,0.21-1.54,0.54-2.26c0.21,0.16,0.41,0.32,0.62,0.48c0.6,0.44,1.31,0.38,1.81-0.17
		c0.25-0.28,0.48-0.57,0.7-0.87c0.42-0.58,0.33-1.3-0.2-1.78C186.68,1190.82,186.53,1190.69,186.38,1190.56z M191.55,1198.15
		c-0.47,0-0.94,0.01-1.41,0c-0.31-0.01-0.46,0.11-0.45,0.43c0.01,0.48,0.01,0.97,0,1.45c-0.01,0.32,0.14,0.44,0.45,0.43
		c0.94-0.01,1.88-0.01,2.82,0c0.31,0,0.46-0.11,0.45-0.43c-0.01-0.48-0.01-0.97,0-1.45c0.01-0.32-0.14-0.44-0.45-0.43
		C192.49,1198.16,192.02,1198.15,191.55,1198.15z"/>
	<path class="st0" d="M207.7,1203.37c-2.58,0-5.16,0-7.74,0c-0.2-1.35-0.4-2.7-0.59-4.06c-0.2-1.4-0.39-2.8-0.58-4.21
		c-0.03-0.25-0.04-0.47,0.17-0.68c0.33-0.34,0.63-0.73,0.94-1.1c0.19,0.06,0.38,0.1,0.56,0.17c0.43,0.16,0.76,0.06,1.03-0.31
		c0.32-0.44,0.66-0.87,0.95-1.32c0.22-0.35,0.44-0.5,0.9-0.41c1.38,0.27,2.76,0.56,4.03,1.21c1,0.51,1.66,1.27,1.87,2.39
		c0.07,0.36,0.1,0.73,0.11,1.1c0.01,2.41,0.01,4.81,0.01,7.22c-0.17,0-0.35,0-0.52,0c0-1.72,0-3.44,0-5.16
		c0-0.41-0.24-0.65-0.61-0.64c-0.31,0.01-0.51,0.26-0.51,0.64C207.7,1199.92,207.7,1201.65,207.7,1203.37z M204.16,1200.46
		c0.49,0,0.99-0.01,1.48,0c0.3,0,0.43-0.13,0.42-0.42c-0.01-0.51,0-1.01,0-1.52c0-0.24-0.13-0.36-0.37-0.36c-0.99,0-1.98,0-2.97,0
		c-0.26,0-0.39,0.12-0.38,0.39c0,0.51,0,1.01,0,1.52c0,0.28,0.13,0.41,0.41,0.4C203.22,1200.46,203.69,1200.46,204.16,1200.46z"/>
	<path class="st0" d="M209.34,1203.37c0-2.41,0-4.81-0.01-7.22c0-0.37-0.04-0.74-0.11-1.1c-0.21-1.12-0.87-1.88-1.87-2.39
		c-1.27-0.65-2.64-0.94-4.03-1.21c-0.45-0.09-0.68,0.06-0.9,0.41c-0.29,0.46-0.63,0.89-0.95,1.32c-0.27,0.37-0.6,0.47-1.03,0.31
		c-0.18-0.07-0.38-0.11-0.56-0.17c-0.36-0.17-0.72-0.34-1.07-0.52c-0.29-0.14-0.58-0.3-0.87-0.45c0.67-0.52,1.33-1.03,2-1.55
		c0.73-0.55,1.46-1.09,2.18-1.64c0.27-0.18,0.53-0.24,0.87-0.18c1.64,0.32,3.29,0.59,4.93,0.94c0.52,0.11,0.99,0.42,1.48,0.64
		c-0.12,0.1-0.25,0.2-0.37,0.3c-0.66,0.54-0.74,1.29-0.22,1.96c0.2,0.25,0.39,0.51,0.61,0.75c0.5,0.56,1.22,0.63,1.83,0.18
		c0.21-0.15,0.41-0.32,0.61-0.48c0.45,0.88,0.58,1.83,0.58,2.8c0.01,1.86-0.02,3.72,0.01,5.58c0.01,0.78-0.21,1.37-0.95,1.7
		C210.78,1203.37,210.06,1203.37,209.34,1203.37z"/>
	<path class="st1" d="M197.95,1192.35c0.29,0.15,0.58,0.3,0.87,0.45c0.36,0.18,0.72,0.35,1.07,0.52c-0.31,0.37-0.6,0.76-0.94,1.1
		c-0.21,0.21-0.2,0.44-0.17,0.68c0.19,1.4,0.38,2.81,0.58,4.21c0.19,1.35,0.39,2.7,0.59,4.06c-1.39,0-2.78,0-4.17,0
		c0.12-0.85,0.25-1.71,0.37-2.56c0.19-1.34,0.38-2.68,0.57-4.02c0.09-0.61,0.16-1.22,0.25-1.83c0.06-0.41-0.26-0.59-0.45-0.85
		c-0.2-0.28-0.45-0.53-0.67-0.79c0.19-0.1,0.38-0.21,0.58-0.3c0.45-0.22,0.91-0.44,1.37-0.67
		C197.86,1192.35,197.9,1192.35,197.95,1192.35z"/>
	<path class="st2" d="M186.94,1203.37c0-1.66,0-3.32,0-4.98c0-0.06,0-0.12,0-0.19c0.01-0.41,0.24-0.65,0.61-0.64
		c0.31,0.01,0.51,0.26,0.51,0.64c0,1.72,0,3.44,0,5.16C187.68,1203.37,187.31,1203.37,186.94,1203.37z"/>
	<path class="st2" d="M207.7,1203.37c0-1.72,0-3.44,0-5.16c0-0.38,0.2-0.63,0.51-0.64c0.36-0.01,0.6,0.23,0.61,0.64
		c0,1.72,0,3.44,0,5.16C208.45,1203.37,208.08,1203.37,207.7,1203.37z"/>
	<path class="st3" d="M197.95,1192.35c-0.05,0-0.09,0-0.14,0c-0.05-0.05-0.1-0.1-0.16-0.15c-1.31-0.99-2.63-1.98-3.94-2.98
		c0.84-0.71,0.78-1.68,0.74-2.63c-0.01-0.11-0.13-0.25-0.24-0.32c-1.63-1.03-2.6-2.49-2.94-4.38c-0.05-0.27-0.06-0.54-0.09-0.82
		c-0.26-0.04-0.5-0.06-0.74-0.12c-0.55-0.13-0.88-0.56-0.89-1.12c-0.01-0.45,0-0.89,0-1.34c-0.01-0.51,0.19-0.88,0.66-1.11
		c0.57,0.01,1.09,0.17,1.55,0.52c0.1,0.07,0.23,0.09,0.35,0.13c0.04-0.12,0.12-0.24,0.12-0.36c0.01-0.67,0.01-1.33,0.01-2
		c1.68,0.62,3.42,0.88,5.2,0.92c1.35,0.03,2.69-0.08,4.02-0.31c0,1.62,0,3.25,0,4.87c0,0.24-0.03,0.49-0.07,0.73
		c-0.39,2.36-1.76,3.94-3.91,4.89c-0.33,0.15-0.67,0.26-1.01,0.38c0.47,0.11,0.93,0.17,1.4,0.18c0.24,0.01,0.33,0.08,0.32,0.32
		c-0.02,0.4,0.02,0.8-0.01,1.19c-0.08,0.93,0.57,1.93,1.78,1.94C199.28,1191.32,198.62,1191.84,197.95,1192.35z"/>
	<path class="st2" d="M196.54,1165.34c1.75-0.23,3.45-0.03,5.12,0.51c1.87,0.59,3.55,1.52,4.9,2.94c0.43,0.45,0.79,0.98,1.08,1.54
		c0.44,0.83,0.29,1.62-0.42,2.25c-0.48,0.42-1.06,0.7-1.6,1.05c-0.02,0.02-0.05,0.03-0.07,0.05c-5.13,0-10.27,0-15.4,0
		c-0.01-0.02-0.02-0.05-0.02-0.07c0.03-0.11,0.08-0.23,0.08-0.34c0.01-0.5,0-0.99,0-1.49c0-0.8,0.29-1.17,1.07-1.36
		c0.72-0.17,1.43-0.37,2.16-0.49c0.96-0.17,1.92-0.34,2.88-0.39c1.01-0.05,2.03-0.03,3.04,0.07c1.27,0.12,2.53,0.35,3.79,0.54
		c0.44,0.07,0.87,0.18,1.3,0.27c0.02-0.04,0.05-0.07,0.07-0.11c-0.25-0.37-0.47-0.78-0.77-1.11c-1.37-1.56-3.09-2.6-5.05-3.25
		C198,1165.69,197.26,1165.53,196.54,1165.34z"/>
	<path class="st0" d="M196.54,1165.34c0.72,0.19,1.46,0.35,2.17,0.59c1.96,0.65,3.68,1.69,5.05,3.25c0.29,0.34,0.51,0.74,0.77,1.11
		c-0.02,0.04-0.05,0.07-0.07,0.11c-0.43-0.09-0.86-0.2-1.3-0.27c-1.26-0.2-2.52-0.42-3.79-0.54c-1.01-0.1-2.03-0.12-3.04-0.07
		c-0.97,0.05-1.93,0.22-2.88,0.39c-0.73,0.13-1.44,0.32-2.16,0.49c-0.78,0.19-1.07,0.57-1.07,1.36c0,0.5,0.01,0.99,0,1.49
		c0,0.12-0.05,0.23-0.08,0.34c-0.65-0.27-1.24-0.62-1.71-1.14c-0.53-0.57-0.66-1.22-0.38-1.96c0.33-0.84,0.89-1.51,1.55-2.1
		c1.85-1.65,4.03-2.62,6.47-3C196.22,1165.37,196.38,1165.36,196.54,1165.34z"/>
	<path class="st4" d="M199.95,1190.81c-1.21,0-1.85-1.01-1.78-1.94c0.03-0.39-0.01-0.79,0.01-1.19c0.01-0.24-0.07-0.32-0.32-0.32
		c-0.47-0.02-0.93-0.08-1.4-0.18c0.34-0.13,0.68-0.24,1.01-0.38c2.15-0.95,3.53-2.53,3.91-4.89c0.04-0.24,0.07-0.49,0.07-0.73
		c0.01-1.62,0-3.25,0-4.87c0.69-0.2,1.39-0.4,2.08-0.6c0,0.68,0,1.36,0.01,2.04c0,0.11,0.06,0.27,0.13,0.3
		c0.08,0.03,0.23-0.03,0.32-0.1c0.46-0.37,1-0.52,1.58-0.54c0.42,0.22,0.65,0.55,0.65,1.03c0,0.43,0,0.87,0,1.3
		c0,0.8-0.49,1.29-1.29,1.31c-0.1,0-0.2,0.01-0.29,0.02c-0.11,0.55-0.18,1.1-0.33,1.63c-0.42,1.52-1.33,2.69-2.66,3.53
		c-0.27,0.17-0.38,0.35-0.34,0.66c0.06,0.5,0.03,1.02,0.18,1.49c0.09,0.31,0.43,0.54,0.65,0.8
		C201.4,1189.71,200.67,1190.26,199.95,1190.81z"/>
	<path class="st0" d="M203.53,1175.68c-0.69,0.2-1.39,0.4-2.08,0.6c-1.33,0.23-2.67,0.34-4.02,0.31c-1.78-0.04-3.52-0.3-5.2-0.92
		c-0.8-0.39-1.61-0.78-2.02-1.65c0,0-0.02-0.01-0.02,0c-0.02-0.1-0.04-0.19-0.06-0.29c0-0.03,0.01-0.05,0.01-0.08
		c5.13,0,10.27,0,15.4,0c0,0.12,0,0.25,0.01,0.37c0,0-0.01,0-0.01,0c-0.3,0.34-0.55,0.73-0.9,1.01
		C204.32,1175.31,203.91,1175.48,203.53,1175.68z"/>
	<path class="st2" d="M193.71,1189.23c1.31,0.99,2.63,1.98,3.94,2.98c0.06,0.04,0.11,0.1,0.16,0.15c-0.46,0.22-0.91,0.44-1.37,0.67
		c-0.19,0.1-0.39,0.2-0.58,0.3c-0.31,0.07-0.61,0.17-0.93,0.22c-0.28,0.04-0.48-0.08-0.65-0.32c-0.86-1.21-1.73-2.4-2.59-3.6
		c-0.07-0.1-0.09-0.25-0.14-0.37c0.37-0.08,0.75-0.14,1.12-0.23C193.06,1188.91,193.4,1188.99,193.71,1189.23z"/>
	<path class="st1" d="M211.86,1193.28c-0.2,0.16-0.41,0.32-0.61,0.48c-0.61,0.45-1.33,0.38-1.83-0.18c-0.21-0.24-0.41-0.5-0.61-0.75
		c-0.52-0.67-0.44-1.42,0.22-1.96c0.12-0.1,0.25-0.2,0.37-0.3C210.53,1191.2,211.34,1192.11,211.86,1193.28z"/>
	<path class="st1" d="M186.38,1190.56c0.15,0.13,0.3,0.26,0.45,0.39c0.53,0.48,0.61,1.2,0.2,1.78c-0.22,0.3-0.45,0.59-0.7,0.87
		c-0.49,0.55-1.21,0.61-1.81,0.17c-0.21-0.15-0.41-0.32-0.62-0.48C184.43,1192.11,185.24,1191.19,186.38,1190.56z"/>
	<path class="st1" d="M190.21,1174.03c0.41,0.87,1.22,1.26,2.02,1.65c0,0.67,0,1.33-0.01,2c0,0.12-0.08,0.24-0.12,0.36
		c-0.12-0.04-0.26-0.06-0.35-0.13c-0.46-0.35-0.98-0.5-1.55-0.52C190.2,1176.27,190.21,1175.15,190.21,1174.03z"/>
	<path class="st1" d="M203.53,1175.68c0.38-0.21,0.79-0.37,1.12-0.64c0.34-0.28,0.6-0.67,0.9-1.01c0.01,1.12,0.01,2.24,0.02,3.35
		c-0.58,0.02-1.12,0.16-1.58,0.54c-0.08,0.07-0.24,0.13-0.32,0.1c-0.08-0.03-0.13-0.2-0.13-0.3
		C203.53,1177.04,203.53,1176.36,203.53,1175.68z"/>
	<path class="st4" d="M205.56,1174.04c0-0.12,0-0.25-0.01-0.37c0.02-0.02,0.05-0.03,0.07-0.05
		C205.6,1173.76,205.58,1173.9,205.56,1174.04z"/>
	<path class="st3" d="M190.14,1173.74c0.02,0.1,0.04,0.19,0.06,0.29C190.18,1173.93,190.16,1173.84,190.14,1173.74z"/>
	<path class="st2" d="M191.55,1198.15c0.47,0,0.94,0.01,1.41,0c0.31-0.01,0.46,0.11,0.45,0.43c-0.01,0.48-0.01,0.97,0,1.45
		c0.01,0.32-0.15,0.44-0.45,0.43c-0.94-0.01-1.88-0.01-2.82,0c-0.31,0-0.46-0.11-0.45-0.43c0.01-0.48,0.01-0.97,0-1.45
		c-0.01-0.32,0.15-0.44,0.45-0.43C190.61,1198.16,191.08,1198.15,191.55,1198.15z"/>
	<path class="st2" d="M204.16,1200.46c-0.47,0-0.94,0-1.41,0c-0.28,0-0.41-0.12-0.41-0.4c0-0.51,0-1.01,0-1.52
		c0-0.26,0.12-0.39,0.38-0.39c0.99,0,1.98,0,2.97,0c0.24,0,0.37,0.12,0.37,0.36c0,0.51-0.01,1.01,0,1.52c0,0.3-0.13,0.43-0.42,0.42
		C205.15,1200.46,204.66,1200.46,204.16,1200.46z"/>
</g>
<g>
	<path class="st0" d="M857.3,1106.41c-2.43,0-4.87,0.03-7.3,0c-1.68-0.02-2.8-1.7-2.31-3.31c0.31-1.03,0.57-2.07,0.78-3.13
		c0.59-2.97,1.12-5.95,1.73-8.92c0.41-1.98,2.16-3.36,4.18-3.38c0.95-0.01,1.89,0.01,2.84,0.01c-0.34,0.27-0.67,0.55-1.01,0.81
		c-0.56,0.43-1.13,0.86-1.73,1.32c0.16,0.12,0.26,0.21,0.37,0.28c0.94,0.56,1.87,1.13,2.82,1.67c0.32,0.18,0.33,0.33,0.08,0.57
		c-0.3,0.28-0.56,0.58-0.87,0.85c-0.23,0.21-0.21,0.39-0.05,0.62c1.09,1.55,2.18,3.11,3.27,4.67c-0.34,0.18-0.76,0.27-0.99,0.54
		c-0.64,0.75-1.19,1.57-1.77,2.36C857.32,1103.05,857.31,1104.73,857.3,1106.41z M854.4,1095.17c-1.55,1.78-1.74,4.07-0.93,5.99
		c0.03,0.08,0.14,0.19,0.21,0.19c0.41,0.02,0.82,0.01,1.31,0.01c-0.07-0.2-0.11-0.32-0.16-0.44c-0.52-1.31-0.52-2.61,0.06-3.91
		c0.15-0.34,0.52-0.73,0.44-1.01c-0.09-0.33-0.55-0.55-0.85-0.82C854.47,1095.19,854.45,1095.19,854.4,1095.17z"/>
	<path class="st5" d="M864.78,1076.15c0,0.48-0.04,0.97,0.03,1.44c0.19,1.28,0,2.5-0.52,3.67c-0.54,1.22-1.47,2.09-2.57,2.8h-0.82
		c-0.72-0.21-1.43-0.41-2.15-0.62c-0.88-0.52-1.69-1.12-2.3-1.96c-0.67-0.9-1.12-1.89-1.24-3.03c-0.01-0.05-0.05-0.1-0.08-0.15
		c0-1.44,0.01-2.88,0.01-4.32c0.08-0.04,0.17-0.08,0.26-0.12c0.1,0.04,0.21,0.12,0.31,0.11c1.18-0.14,2.33-0.42,3.37-1.03
		c1.67-0.96,3.33-1.93,5-2.91c0.3-0.18,0.41-0.08,0.43,0.22c0.03,0.81,0.05,1.62,0.09,2.42c0.02,0.44,0.06,0.87,0.09,1.3
		c0.52-0.02,0.94,0.16,1.16,0.65c0.19,0.41,0.15,0.83-0.17,1.12C865.44,1075.95,865.08,1076.02,864.78,1076.15z"/>
	<path class="st1" d="M855.4,1073.86c-0.09,0.04-0.17,0.08-0.26,0.12c-0.48,0.03-0.96,0.05-1.44,0.08c0.03-1.41-0.13-2.82,0.26-4.21
		c0.87-3.12,3.9-5.38,7.04-5.24c0.58,0.5,1.15,1,1.74,1.5c0.1,0.08,0.22,0.14,0.33,0.2c0,0.84,0,1.67,0.01,2.51
		c0,0.16,0.05,0.31,0.08,0.47c-1.38,0.81-2.76,1.62-4.14,2.43C857.81,1072.43,856.61,1073.14,855.4,1073.86z"/>
	<path class="st0" d="M875.2,1102.18c0.09,0.24,0.18,0.47,0.27,0.71c0.69,1.64-0.44,3.5-2.2,3.52c-2.44,0.04-4.88,0-7.32,0
		c0-1.68,0-3.36,0.01-5.04c0.75,0,1.5,0,2.25,0c0.54,0,1.08,0,1.61,0c1.09,0,2.18-0.02,3.27,0.01c0.35,0.01,0.71,0.09,1.03,0.22
		C874.51,1101.74,874.85,1101.98,875.2,1102.18z"/>
	<path class="st0" d="M860.9,1084.05c0.27,0,0.55,0,0.82,0c0.3,0,0.6,0,0.9,0c0.62,0.01,1.25,0.01,1.87,0.02
		c0.12,0.03,0.25,0.07,0.37,0.1c0.11,0.14,0.2,0.32,0.34,0.42c1.25,0.87,2.07,2.03,2.37,3.54c0.03,0.45,0.07,0.89,0.1,1.34
		c-0.1,0.54-0.19,1.08-0.29,1.63c-0.08,0.14-0.19,0.27-0.24,0.42c-0.15,0.42-0.39,0.48-0.73,0.22c-0.06-0.04-0.13-0.07-0.2-0.1
		c-0.41-0.39-0.83-0.77-1.24-1.16c-0.15-0.22-0.31-0.44-0.46-0.65c-0.3-0.88-0.6-1.76-0.92-2.69c-1.88,0.38-3.87,0.78-5.86,1.19
		c-0.06,0.03-0.13,0.05-0.19,0.08c-0.09-0.08-0.22-0.15-0.25-0.26c-0.04-0.15-0.01-0.32-0.02-0.48c0-1.18,0-2.35,0-3.61
		c0.51,0,0.98,0,1.45,0C859.46,1084.05,860.18,1084.05,860.9,1084.05z"/>
	<path class="st5" d="M868.11,1073.98v4.32c-0.16,1.06-0.51,2.05-1.11,2.94c-0.57,0.84-1.3,1.51-2.19,2.01
		c-0.12,0.07-0.21,0.19-0.31,0.28c-0.63,0.18-1.25,0.35-1.88,0.53h-0.9c1.1-0.71,2.03-1.58,2.57-2.8c0.52-1.17,0.71-2.39,0.52-3.67
		c-0.07-0.47-0.03-0.96-0.03-1.44c0.3-0.13,0.66-0.2,0.9-0.41c0.32-0.29,0.36-0.71,0.17-1.12c-0.22-0.49-0.64-0.67-1.16-0.65
		c-0.03-0.43-0.07-0.86-0.09-1.3c-0.04-0.8-0.06-1.61-0.09-2.42c-0.02-0.3-0.13-0.4-0.43-0.22c-1.67,0.98-3.33,1.95-5,2.91
		c-1.04,0.61-2.19,0.89-3.37,1.03c-0.1,0.01-0.21-0.07-0.31-0.11c1.2-0.71,2.41-1.43,3.62-2.14c1.38-0.81,2.76-1.62,4.13-2.43
		c0.64-0.31,0.63-0.31,1.13,0.25c0.06,0.08,0.15,0.14,0.22,0.21C865.71,1071.16,866.91,1072.57,868.11,1073.98z"/>
	<path class="st0" d="M866.23,1091.63c0.07,0.03,0.14,0.06,0.2,0.1c0.35,0.25,0.58,0.2,0.73-0.22c0.05-0.15,0.16-0.28,0.24-0.42
		c0.45-0.16,0.91-0.33,1.52-0.54c-0.47-0.42-0.85-0.75-1.23-1.08c-0.03-0.45-0.07-0.89-0.1-1.34c0.45,0.15,0.9,0.31,1.35,0.44
		c0.89,0.27,1.79,0.19,2.69,0.09c0.34,0.42,0.67,0.84,1.01,1.26c-0.09,0.09-0.21,0.16-0.27,0.26c-0.69,1.22-1.36,2.46-2.07,3.66
		c-0.35,0.58-0.79,1.11-1.18,1.67c-0.22-0.36-0.46-0.29-0.72-0.04c-0.13,0.12-0.27,0.24-0.41,0.34c-0.23,0.17-0.26,0.32-0.06,0.55
		c0.14,0.16,0.2,0.39,0.3,0.59c-0.08,0.06-0.17,0.12-0.24,0.2c-0.91,1.07-1.82,2.15-2.74,3.22c-0.29-0.37-0.6-0.74-0.87-1.13
		c-0.3-0.43-0.68-0.7-1.2-0.77c1.17-1.68,2.33-3.35,3.58-5.14c-0.48-0.43-0.95-0.87-1.48-1.35
		C865.64,1091.84,865.93,1091.74,866.23,1091.63z"/>
	<path class="st0" d="M869.11,1095.51c0.4-0.55,0.84-1.08,1.18-1.67c0.72-1.21,1.38-2.44,2.07-3.66c0.06-0.1,0.18-0.18,0.27-0.26
		c0.49,0.72,0.55,1.56,0.7,2.38c0.59,3.07,1.17,6.15,1.75,9.22c0.04,0.22,0.07,0.44,0.11,0.66c-0.36-0.2-0.7-0.43-1.07-0.58
		c-0.32-0.13-0.69-0.21-1.03-0.22c-1.09-0.03-2.18-0.01-3.27-0.01c0.03-0.12,0.05-0.23,0.08-0.35c0.32-1.01,0.37-2.04,0.2-3.09
		C869.96,1097.05,869.56,1096.27,869.11,1095.51z"/>
	<path class="st1" d="M868.12,1073.98c-1.2-1.41-2.41-2.82-3.61-4.23c0-1.6,0.01-3.21,0.01-4.81c0.46,0.19,0.93,0.39,1.39,0.58
		c0.13,0.05,0.27,0.1,0.4,0.15c0.08,0.09,0.15,0.19,0.24,0.26c1.95,1.44,2.96,3.37,3.01,5.8c0,0.78-0.01,1.55-0.01,2.33
		C869.07,1074.03,868.59,1074.01,868.12,1073.98z"/>
	<path class="st6" d="M857.3,1106.41c0.01-1.68,0.02-3.36,0.03-5.04c1.43,0,2.87,0,4.3,0c0.21,0,0.42,0,0.63,0
		c0.05,0.07,0.08,0.16,0.15,0.2c0.5,0.37,0.7,0.86,0.67,1.48c-0.03,0.58-0.03,1.17,0,1.75c0.03,0.58-0.22,1-0.63,1.37
		c-0.07,0.06-0.13,0.15-0.19,0.23C860.61,1106.41,858.95,1106.41,857.3,1106.41z"/>
	<path class="st7" d="M869.56,1071.73c-0.05-2.43-1.06-4.36-3.01-5.8c-0.09-0.07-0.16-0.17-0.24-0.26c0.92-0.99,2.42-1.34,3.76-0.86
		c1.33,0.48,2.29,1.76,2.37,3.16c0.08,1.48-0.7,2.83-2.03,3.47C870.14,1071.57,869.85,1071.64,869.56,1071.73z"/>
	<path class="st8" d="M857.3,1087.66c0,0.16-0.03,0.33,0.02,0.48c0.03,0.1,0.16,0.17,0.25,0.26c0.78,2.33,1.56,4.65,2.33,6.99
		c0.35,1.06,0.68,2.14,1.02,3.2c-0.27-0.04-0.54-0.07-0.81-0.11c-1.09-1.56-2.18-3.11-3.27-4.67c-0.16-0.23-0.19-0.41,0.05-0.62
		c0.3-0.27,0.57-0.58,0.87-0.85c0.26-0.24,0.25-0.39-0.08-0.57c-0.95-0.54-1.88-1.11-2.82-1.67c-0.11-0.07-0.21-0.16-0.37-0.28
		c0.6-0.46,1.17-0.88,1.73-1.32c0.34-0.26,0.67-0.54,1.01-0.81C857.24,1087.68,857.27,1087.67,857.3,1087.66z"/>
	<path class="st0" d="M871.62,1088.66c-0.9,0.1-1.81,0.17-2.69-0.09c-0.45-0.14-0.9-0.3-1.35-0.44c-0.3-1.51-1.12-2.66-2.37-3.54
		c-0.14-0.1-0.23-0.28-0.34-0.42c2.88-0.57,5.75,1.08,6.69,3.86C871.63,1088.23,871.61,1088.45,871.62,1088.66z"/>
	<path class="st5" d="M862.26,1106.41c0.06-0.08,0.11-0.17,0.19-0.23c0.41-0.37,0.65-0.79,0.63-1.37c-0.03-0.58-0.03-1.17,0-1.75
		c0.03-0.62-0.17-1.11-0.67-1.48c-0.06-0.05-0.1-0.14-0.15-0.2c1.22,0,2.45,0,3.67,0l0.03-0.01c0,1.68,0,3.36-0.01,5.04
		C864.72,1106.41,863.49,1106.41,862.26,1106.41z"/>
	<path class="st9" d="M868.12,1073.98c0.48,0.03,0.96,0.05,1.44,0.08c0.86,0.43,1.44,1.06,1.44,2.08c0.01,1.16-0.95,2.14-2.12,2.16
		c-0.25,0.01-0.51,0-0.76,0C868.12,1076.86,868.12,1075.42,868.12,1073.98z"/>
	<path class="st9" d="M853.7,1074.06c0.48-0.03,0.96-0.05,1.44-0.08c0,1.44,0,2.88,0,4.31c-0.79,0.03-1.55,0.03-2.18-0.58
		c-1.08-1.05-0.9-2.69,0.4-3.46C853.47,1074.19,853.59,1074.12,853.7,1074.06z"/>
	<path class="st7" d="M864.52,1064.94c0,1.6-0.01,3.21-0.01,4.81c-0.08-0.07-0.16-0.14-0.23-0.21c-0.49-0.56-0.49-0.56-1.12-0.25
		c-0.03-0.16-0.08-0.31-0.08-0.47c-0.01-0.84-0.01-1.67-0.01-2.51c0-0.56,0-1.13,0-1.69
		C863.55,1064.73,864.03,1064.83,864.52,1064.94z"/>
	<path class="st7" d="M863.07,1064.62c0,0.56,0,1.13,0,1.69c-0.11-0.07-0.23-0.12-0.33-0.2c-0.58-0.49-1.16-1-1.74-1.5
		C861.69,1064.62,862.38,1064.62,863.07,1064.62z"/>
	<path class="st9" d="M860.9,1084.05c-0.72,0-1.44,0-2.16,0c0-0.2,0.01-0.41,0.01-0.61C859.47,1083.64,860.18,1083.85,860.9,1084.05
		z"/>
	<path class="st9" d="M862.62,1084.05c0.63-0.17,1.25-0.35,1.88-0.52c0,0.18,0,0.36,0,0.54
		C863.87,1084.06,863.25,1084.06,862.62,1084.05z"/>
	<path class="st5" d="M860.09,1098.47c0.27,0.04,0.54,0.07,0.81,0.11c0,0,0,0,0,0c0.03,0.04,0.06,0.07,0.09,0.11
		c0.24,0.29,0.48,0.58,0.72,0.87c-0.03,0.6-0.06,1.21-0.08,1.81c-1.43,0-2.87,0-4.3,0c0.59-0.79,1.14-1.61,1.77-2.36
		C859.33,1098.75,859.76,1098.65,860.09,1098.47z"/>
	<path class="st10" d="M854.4,1095.17c0.05,0.02,0.06,0.02,0.07,0.03c0.3,0.27,0.76,0.49,0.85,0.82c0.08,0.27-0.29,0.66-0.44,1.01
		c-0.57,1.29-0.58,2.6-0.06,3.91c0.05,0.12,0.09,0.24,0.16,0.44c-0.48,0-0.89,0.01-1.31-0.01c-0.08,0-0.18-0.11-0.21-0.19
		C852.66,1099.24,852.85,1096.95,854.4,1095.17z"/>
	<path class="st0" d="M865.23,1100.37c0.91-1.07,1.82-2.15,2.74-3.22c0.07-0.08,0.16-0.13,0.24-0.2c0.04,0.06,0.1,0.11,0.13,0.18
		c0.65,1.43,0.53,2.84-0.13,4.24c-0.75,0-1.5,0-2.25,0l-0.03,0.01C865.7,1101.04,865.47,1100.71,865.23,1100.37z"/>
	<path class="st10" d="M868.21,1101.37c0.66-1.39,0.78-2.8,0.13-4.24c-0.03-0.07-0.09-0.12-0.13-0.18c-0.1-0.2-0.16-0.43-0.3-0.59
		c-0.2-0.23-0.17-0.38,0.06-0.55c0.14-0.1,0.28-0.22,0.41-0.34c0.26-0.25,0.5-0.31,0.72,0.04c0.46,0.76,0.85,1.53,1,2.42
		c0.17,1.05,0.12,2.07-0.2,3.09c-0.04,0.11-0.05,0.23-0.08,0.35C869.29,1101.37,868.75,1101.37,868.21,1101.37z"/>
	<path class="st11" d="M861.71,1099.56c-0.24-0.29-0.48-0.58-0.72-0.87c-0.03-0.04-0.06-0.07-0.09-0.11c0,0,0,0,0,0
		c-0.34-1.07-0.67-2.14-1.02-3.2c-0.77-2.33-1.55-4.66-2.33-6.99c0.06-0.03,0.13-0.05,0.19-0.08c1.27,1.93,2.55,3.85,3.87,5.85
		c1.01-1.51,1.96-2.93,2.91-4.35c0.15,0.22,0.31,0.44,0.46,0.65c-0.53,1.61-1.07,3.22-1.59,4.84c-0.35,1.09-0.7,2.18-1.04,3.27l0,0
		c-0.03,0.04-0.06,0.07-0.09,0.11C862.08,1098.98,861.9,1099.27,861.71,1099.56z"/>
	<path class="st12" d="M864.53,1089.82c-0.95,1.42-1.89,2.83-2.91,4.35c-1.32-2-2.59-3.92-3.87-5.85c1.99-0.4,3.97-0.8,5.86-1.19
		C863.93,1088.06,864.23,1088.94,864.53,1089.82z"/>
	<path class="st8" d="M862.35,1098.58c0.35-1.09,0.69-2.18,1.04-3.27c0.53-1.61,1.06-3.22,1.59-4.84c0.41,0.39,0.83,0.77,1.24,1.16
		c-0.29,0.11-0.58,0.21-0.97,0.35c0.53,0.48,1.01,0.92,1.48,1.35c-1.25,1.79-2.41,3.46-3.58,5.14
		C862.89,1098.51,862.62,1098.55,862.35,1098.58z"/>
	<path class="st13" d="M867.68,1089.46c0.38,0.33,0.75,0.66,1.23,1.08c-0.61,0.22-1.06,0.38-1.52,0.54
		C867.49,1090.55,867.58,1090.01,867.68,1089.46z"/>
	<path class="st14" d="M862.35,1098.58c0.27-0.04,0.54-0.07,0.81-0.11c0.52,0.07,0.9,0.34,1.2,0.77c0.27,0.39,0.58,0.75,0.87,1.13
		c0.23,0.34,0.46,0.67,0.69,1.01c-1.22,0-2.45,0-3.67,0c-0.21,0-0.42,0-0.63,0c0.03-0.6,0.06-1.21,0.08-1.81
		c0.19-0.29,0.37-0.58,0.56-0.87C862.29,1098.65,862.32,1098.61,862.35,1098.58L862.35,1098.58z"/>
	<path class="st8" d="M860.9,1098.58c0.03,0.04,0.06,0.07,0.09,0.11C860.96,1098.65,860.93,1098.61,860.9,1098.58z"/>
	<path class="st8" d="M862.35,1098.58c-0.03,0.04-0.06,0.07-0.09,0.11C862.29,1098.65,862.32,1098.61,862.35,1098.58z"/>
</g>
<g>
	<path class="st15" d="M57,226.31c12.46,4.89,19.97,14,22.65,27.01c1.69,8.23,0.73,16.38-1.46,24.45
		c-2.09,7.68-3.51,15.44-2.78,23.51c1.18,13.05,9.15,19.91,22.12,17.95c5.1-0.77,9.98-3.08,14.96-4.69c0.32,0.2,0.65,0.6,0.95,0.59
		c5.7-0.33,11.57-5.91,12.26-11.59c0.37-3.03,0.8-6.05,1.16-9.08c1.91-16.17,6.88-31.42,13.76-46.1c0.2-0.2,0.4-0.39,0.6-0.59
		c4.78,0,9.56,0,14.33,0c-0.43,0.54-0.96,1.03-1.27,1.63c-0.92,1.75-1.76,3.55-2.63,5.33c2.26,0.86,4.51,1.77,6.79,2.55
		c0.5,0.17,1.16-0.13,1.74-0.2c5.17-0.67,8.28-4.66,12.09-7.5c0.76-0.19,1.58-0.26,2.27-0.6c6.09-2.98,12.41-3.62,19.08-2.44
		c12.93,2.29,24.54,15.37,24.67,28.36c0.02,2.3,0.33,4.6,0.51,6.91c-0.19,1.17-0.43,2.32-0.55,3.5c-0.59,5.97-1.85,11.75-4.59,17.15
		c-4.27,8.39-11.1,14.12-19.07,18.74c-0.84,0.49-1.41,1.46-2.1,2.2c0.93,0.32,1.86,0.91,2.8,0.92c6.96,0.08,13.92-0.01,20.88,0.06
		c10.07,0.1,17.38,5.36,19.76,14.09c1.52,5.57,0.86,7.72-3.34,10.83c-20.11,0-40.21,0-60.32,0c-2.84-1.3-4.52-3.44-4.77-6.62
		c0-2.96,0-5.92-0.01-8.88c-0.02-2.96-0.64-3.49-3.47-2.94c-6.12,1.19-11.21,9.02-7.77,15.52c-0.44,0.17-0.87,0.4-1.33,0.51
		c-3.37,0.82-6.75,1.61-10.12,2.41c-4.58,0-9.16,0-13.74,0c-3.65-1.08-7.63-1.57-10.88-3.38c-5.07-2.82-9.39-2.61-14.55-0.1
		c-4.07,1.98-8.9,2.38-13.39,3.48c-1,0-1.99,0-2.99,0c-0.66-0.44-1.26-1.09-1.98-1.3c-5.98-1.68-11.67-4.09-16.22-8.33
		c-11.9-11.1-14.85-25.07-12.54-40.67c1.16-7.81,4.63-14.68,8.12-21.58c3.28-6.5,4.82-13.47,3.94-20.7
		c-1.29-10.7-5.77-20.08-12.8-28.25C57.31,227.91,57.25,227.03,57,226.31z"/>
	<path class="st15" d="M276.93,215.62c0.54,1.88,1.05,3.78,1.61,5.65c2.46,8.27,1.5,16.5-0.16,24.75
		c-1.74,8.66-3.69,17.31-4.83,26.06c-0.56,4.31,0.01,8.93,0.89,13.24c2.41,11.87,5.32,23.63,7.86,35.47
		c0.65,3.02,2.3,3.62,5.07,3.61c10.55-0.07,17.81,5.16,20.15,14.24c1.37,5.33,0.48,7.78-3.87,10.64c-6.57,0-13.14,0-19.71,0
		c-0.3-0.6-0.58-1.22-0.91-1.8c-4.48-7.91-9.95-15.43-13.23-23.8c-4.93-12.6-8.43-25.78-12.3-38.78c-1-3.36-1.39-6.97-1.56-10.49
		c-0.26-5.16-0.12-10.34-0.04-15.51c0.03-1.84-0.42-3.11-2.09-4.21c-1.87-1.23-3.67-2.77-5.04-4.53c-5.9-7.57-8.35-16.1-7.3-25.76
		c1-9.19,4.45-16.77,12.55-21.74c1.58-0.97,3.24-1.82,4.86-2.72c2.96,1.48,6.42,2.42,8.75,4.58
		C271.16,207.76,273.88,211.87,276.93,215.62z"/>
	<path class="st16" d="M273.2,349.28c-1.61-1.68-3.23-3.34-4.82-5.04c-0.33-0.35-0.5-0.86-0.78-1.26
		c-6.55-9.57-11.25-19.92-14.21-31.2c-2.46-9.38-5.84-18.52-8.62-27.82c-0.81-2.72-1.21-5.63-1.32-8.47
		c-0.2-5.35-0.03-10.72-0.09-16.08c-0.01-1.03-0.36-2.06-0.55-3.09c-0.29-0.39-0.51-0.89-0.89-1.15
		c-15.13-10.27-16.82-34.23-6.89-47.1c4.29-5.55,16.91-11.4,23.85-8.15c-1.62,0.9-3.28,1.75-4.86,2.72
		c-8.11,4.97-11.55,12.55-12.55,21.74c-1.05,9.66,1.4,18.19,7.3,25.76c1.37,1.76,3.17,3.3,5.04,4.53c1.67,1.1,2.12,2.37,2.09,4.21
		c-0.08,5.17-0.22,10.35,0.04,15.51c0.17,3.52,0.56,7.13,1.56,10.49c3.87,13,7.37,26.18,12.3,38.78c3.28,8.38,8.75,15.9,13.23,23.8
		c0.33,0.59,0.61,1.2,0.91,1.8C280.37,349.28,276.79,349.28,273.2,349.28z"/>
	<path class="st17" d="M57,226.31c0.25,0.72,0.32,1.61,0.78,2.15c7.03,8.17,11.51,17.55,12.8,28.25c0.87,7.23-0.66,14.2-3.94,20.7
		c-3.49,6.91-6.96,13.77-8.12,21.58c-2.31,15.6,0.64,29.56,12.54,40.67c4.55,4.25,10.24,6.66,16.22,8.33
		c0.73,0.2,1.33,0.85,1.98,1.3c-3.38,0-6.77,0-10.15,0c-1.46-0.46-2.91-1-4.39-1.38c-16.21-4.07-27.39-17.25-29.07-33.95
		c-1.17-11.65,0.8-22.67,6.67-32.74c10.43-17.87,6.85-35.68-5.51-50.51c-1.27-1.53-2.73-2.91-3.92-4.49
		c-0.44-0.59-0.65-1.7-0.4-2.35c0.19-0.5,1.37-1.06,1.94-0.92C48.64,223.97,52.81,225.17,57,226.31z"/>
	<path class="st18" d="M347.86,120.54c-1.55,1.62-3.11,3.24-4.66,4.86c-3.01-1.01-6.03-1.98-9.03-3.03
		c-2.13-0.75-3.09-2.3-3.05-4.58c0.06-3.88,0.03-7.76,0.03-11.64c4.5,1.23,9.04,2.32,13.46,3.78c1.26,0.41,2.17,1.88,3.25,2.86
		C347.86,115.37,347.86,117.96,347.86,120.54z"/>
	<path class="st15" d="M331.15,106.15c-0.01,3.88,0.03,7.76-0.03,11.64c-0.04,2.28,0.92,3.84,3.05,4.58
		c2.99,1.05,6.02,2.02,9.03,3.03c-3.31,9.85-10.08,14.98-20.52,15.54c-7.12,0.38-14.22,1.17-21.33,1.8
		c-0.46,0.04-0.89,0.33-1.34,0.5c-2.68,0-5.37-0.09-8.05,0c-10.79,0.37-18.37-4.42-23.1-14.06c-2.42-4.92-8.28-5.35-10.81-0.6
		c-0.91,1.72-0.92,4.65-0.09,6.44c4.3,9.33,11.4,15.81,21.29,18.93c6.62,2.1,13.41,2.34,20.25,1.21c-0.01,1.19-0.02,2.38-0.02,3.57
		c-5.76,1.19-11.4,0.09-17-1.03c-9.13-1.83-17.57-5.54-25.45-10.4c-7-4.32-13.6-9.21-19.1-15.43c0-0.19,0-0.39-0.01-0.58
		c2.99-2.78,6.8-4.95,7.2-9.67c1.04-12.12,6.16-22.59,13.06-32.36c0.81-1.15,1.63-2.46,1.9-3.81c1.55-7.79,3.29-15.52,7.31-22.47
		c1.43-2.48,3.4-4.66,5.13-6.98c0.04,5.36,0.23,10.73,0.06,16.09c-0.08,2.62,0.93,3.68,3.35,4.29c5.96,1.5,11.85,3.26,17.79,4.87
		c5.31,1.44,8.88,4.66,10.44,10c1.6,5.49,5.44,8.55,10.78,10.07C320.36,102.89,325.75,104.54,331.15,106.15z M292.32,100.78
		c0-1.29,0.04-2.59-0.01-3.88c-0.09-2.62-1.98-4.45-4.52-4.42c-2.56,0.02-4.36,1.83-4.42,4.53c-0.05,2.39-0.06,4.78,0,7.16
		c0.07,3.07,1.42,4.39,4.37,4.43c3.11,0.04,4.48-1.31,4.57-4.54C292.34,102.97,292.32,101.87,292.32,100.78z"/>
	<path class="st19" d="M153.06,211.85c2.77-2.8,5.53-5.59,8.3-8.39c2.13,1.6,4.16,3.35,6.42,4.74c1.02,0.63,2.73,1.15,3.67,0.72
		c9.73-4.45,18.21-10.7,25.56-18.46c1.31-1.38,1.42-2.89,0.03-4.18c-3.11-2.88-6.32-5.66-9.48-8.47c2.62-3.01,5.23-6.02,7.85-9.03
		c2.43,1.85,4.87,3.7,7.3,5.54c3.93,3.62,7.85,7.25,11.8,10.86c1.85,1.69,1.85,3.31,0.06,5.08c-4.65,4.6-9.15,9.35-13.9,13.85
		c-7.56,7.16-16.29,12.58-25.73,16.96c-4.71,2.19-8.94,3.03-12.75-1.5c-0.61-0.73-1.62-1.12-2.45-1.67
		C157.52,215.88,155.29,213.87,153.06,211.85z"/>
	<path class="st17" d="M272.51,56.03c-1.72,2.32-3.69,4.49-5.13,6.98c-4.01,6.95-5.76,14.68-7.31,22.47
		c-0.27,1.35-1.09,2.66-1.9,3.81c-6.9,9.77-12.02,20.24-13.06,32.36c-0.4,4.72-4.21,6.89-7.2,9.67c-1.81-2.43-3.63-4.85-5.44-7.28
		c0.44-11.79,4.7-22.3,11.38-31.77c2.55-3.61,4.05-7.29,4.84-11.54c2.66-14.26,9.96-26,20.22-36.03c0.6-0.59,1.89-1.14,2.51-0.88
		c0.63,0.26,1.13,1.55,1.16,2.4C272.67,49.48,272.55,52.76,272.51,56.03z"/>
	<path class="st16" d="M140.61,248.35c-6.88,14.68-11.85,29.93-13.76,46.1c-0.36,3.03-0.79,6.05-1.16,9.08
		c-0.69,5.69-6.55,11.27-12.26,11.59c-0.3,0.02-0.63-0.38-0.95-0.59c0.38-4.43,0.77-8.85,1.13-13.28
		c1.41-17.55,6.03-34.25,13.34-50.24c0.2-0.44,0.29-0.93,0.43-1.4C131.8,249.2,136.2,248.77,140.61,248.35z"/>
	<path class="st1" d="M140.61,248.35c-4.41,0.42-8.82,0.85-13.23,1.27c-0.67-0.18-1.35-0.32-2-0.55c-3.12-1.09-3.78-2.27-2.02-5.08
		c5.75-9.16,11.68-18.21,17.61-27.25c1.19-1.82,2.79-3.37,4.07-5.14c1.65-2.29,3.41-2.85,5.71-0.87c0.63,0.54,1.53,0.76,2.31,1.12
		c2.23,2.02,4.45,4.03,6.68,6.05c-2.69,3.78-5.6,7.41-8.01,11.36c-3.69,6.06-7.03,12.32-10.52,18.5
		C141.01,247.95,140.81,248.15,140.61,248.35z"/>
	<path class="st15" d="M187.56,177.8c3.17,2.82,6.38,5.59,9.48,8.47c1.4,1.3,1.28,2.8-0.03,4.18c-7.35,7.77-15.83,14.01-25.56,18.46
		c-0.94,0.43-2.66-0.09-3.67-0.72c-2.25-1.39-4.29-3.14-6.42-4.74C170.1,194.91,178.83,186.35,187.56,177.8z"/>
	<path class="st1" d="M202.71,174.32c-2.43-1.85-4.87-3.7-7.3-5.54c-0.27-0.49-0.44-1.08-0.82-1.46c-3.43-3.32-3.41-3.29-0.61-6.98
		c3.53-4.65,7.02-9.33,10.5-14.02c2.96-4,3.26-4.03,6.76-0.38c0.24,0.25,0.69,0.31,1.04,0.45c0.41,0.85,0.7,1.81,1.26,2.54
		c1.51,1.95,3.14,3.8,4.72,5.69C213.07,161.18,207.89,167.75,202.71,174.32z"/>
	<path class="st1" d="M232.47,124.03c1.81,2.43,3.63,4.85,5.44,7.28c0.01,0.19,0.01,0.39,0.01,0.58c-3.57,3.77-7.14,7.54-10.71,11.3
		c-0.19,0.01-0.38,0.01-0.57-0.01c-1.93-2.36-3.86-4.72-5.79-7.08c-2.44-4.78-2.44-4.78,1.82-8.57c0.74-0.66,1.57-1.26,2.17-2.03
		C226.98,122.74,229.46,122.11,232.47,124.03z"/>
	<path class="st17" d="M220.86,136.11c1.93,2.36,3.86,4.72,5.79,7.09c-0.44,0.75-0.84,1.52-1.33,2.23c-2.14,3.08-4.32,6.14-6.48,9.2
		c-0.19-0.01-0.39-0.01-0.58-0.01c-1.58-1.89-3.21-3.74-4.72-5.69c-0.57-0.73-0.85-1.69-1.26-2.54
		C215.14,142.96,218,139.53,220.86,136.11z"/>
	<path class="st0" d="M218.26,154.62c0.19,0,0.39,0.01,0.58,0.01c0.23,0.32,0.44,0.67,0.7,0.95c10.77,11.61,23.64,20.3,38.05,26.64
		c10.65,4.68,21.67,8.29,33.54,8.21c0.16,0.11,0.31,0.29,0.49,0.32c5.59,0.95,5.92,1.65,2.78,6.46c-4.7,7.19-10.4,13.45-17.46,18.41
		c-3.06-3.75-5.77-7.86-9.28-11.11c-2.33-2.16-5.79-3.09-8.75-4.58c-6.94-3.25-19.56,2.6-23.85,8.15
		c-9.94,12.87-8.24,36.83,6.89,47.1c0.38,0.26,0.6,0.76,0.89,1.15c-2.92,6.13-6.95,11.42-12.03,15.91
		c-1.25-9.63-5.16-18.16-11.8-25.11c-10.2-10.67-22.78-15.34-37.61-13.11c-10.05,1.52-18.58,5.9-25.26,13.68
		c-0.19,0.02-0.39,0.04-0.59,0.06c-4.78,0-9.56,0-14.33,0c3.49-6.18,6.83-12.45,10.52-18.5c2.41-3.95,5.32-7.58,8.01-11.36
		c0.83,0.55,1.83,0.94,2.45,1.67c3.82,4.53,8.05,3.69,12.75,1.5c9.44-4.38,18.17-9.8,25.73-16.96c4.75-4.5,9.25-9.25,13.9-13.85
		c1.79-1.77,1.79-3.38-0.06-5.08c-3.94-3.61-7.86-7.24-11.8-10.86C207.89,167.75,213.07,161.18,218.26,154.62z"/>
	<path class="st0" d="M227.22,143.2c3.57-3.77,7.14-7.54,10.71-11.3c5.5,6.22,12.1,11.11,19.1,15.43
		c7.88,4.87,16.32,8.57,25.45,10.4c5.6,1.13,11.24,2.23,17,1.03c4.87-0.05,5.5,0.61,5.3,5.48c-0.01,0.2,0,0.4-0.02,0.59
		c-0.31,2.64,0.19,5.87-1.18,7.73c-1.18,1.6-4.48,1.64-6.85,2.37c-4.52-0.41-9.09-0.53-13.56-1.28c-14.59-2.47-27.94-8.1-39.8-16.96
		C237.76,152.5,232.59,147.71,227.22,143.2z"/>
	<path class="st15" d="M227.22,143.2c5.37,4.52,10.54,9.3,16.15,13.49c11.85,8.86,25.2,14.49,39.8,16.96
		c4.46,0.76,9.03,0.87,13.56,1.28c-1.86,5.17-3.73,10.34-5.59,15.5c-11.87,0.07-22.89-3.53-33.54-8.21
		c-14.41-6.34-27.28-15.03-38.05-26.64c-0.27-0.29-0.47-0.64-0.7-0.95c2.16-3.07,4.33-6.12,6.48-9.2c0.49-0.71,0.89-1.49,1.33-2.23
		C226.84,143.21,227.03,143.21,227.22,143.2z"/>
	<path class="st19" d="M299.5,155.19c-6.84,1.13-13.63,0.89-20.25-1.21c-9.89-3.13-16.99-9.6-21.29-18.93
		c-0.83-1.8-0.83-4.73,0.09-6.44c2.53-4.75,8.4-4.32,10.81,0.6c4.73,9.63,12.31,14.43,23.1,14.06c2.68-0.09,5.37-0.01,8.05,0
		C299.84,147.23,299.67,151.21,299.5,155.19z"/>
	<path class="st1" d="M156.14,247.7c6.68-7.78,15.21-12.16,25.26-13.68c14.82-2.23,27.4,2.44,37.61,13.11
		c6.65,6.95,10.55,15.48,11.8,25.11c-4,3.18-8,6.37-12,9.56c-0.18-2.3-0.48-4.6-0.51-6.91c-0.13-12.99-11.75-26.07-24.67-28.36
		c-6.67-1.18-12.99-0.54-19.08,2.44c-0.69,0.34-1.51,0.4-2.27,0.6C166.89,248.94,161.51,248.32,156.14,247.7z"/>
	<path class="st16" d="M167.51,342.66c-3.75,1.24-7.51,2.47-11.26,3.71c-3.44-6.5,1.66-14.34,7.77-15.52
		c2.83-0.55,3.46-0.02,3.47,2.94C167.51,336.74,167.5,339.7,167.51,342.66z"/>
	<path class="st19" d="M156.14,247.7c5.38,0.62,10.76,1.24,16.14,1.86c-3.82,2.85-6.92,6.84-12.09,7.5
		c-0.59,0.08-1.24,0.37-1.74,0.2c-2.29-0.78-4.53-1.69-6.79-2.55c0.87-1.78,1.71-3.58,2.63-5.33c0.32-0.6,0.84-1.09,1.27-1.63
		C155.75,247.75,155.94,247.73,156.14,247.7z"/>
	<path class="st19" d="M292.32,100.78c0,1.09,0.03,2.19,0,3.28c-0.09,3.23-1.46,4.58-4.57,4.54c-2.95-0.04-4.3-1.36-4.37-4.43
		c-0.06-2.39-0.05-4.78,0-7.16c0.05-2.7,1.85-4.51,4.42-4.53c2.55-0.02,4.43,1.8,4.52,4.42C292.35,98.19,292.32,99.49,292.32,100.78
		z"/>
</g>
</svg>
