<?xml version="1.0" encoding="utf-8"?>
<!-- Generator: Adobe Illustrator 24.1.3, SVG Export Plug-In . SVG Version: 6.00 Build 0)  -->
<svg version="1.1" id="Layer_1" xmlns="http://www.w3.org/2000/svg" xmlns:xlink="http://www.w3.org/1999/xlink" x="0px" y="0px"
	 viewBox="0 0 396.85 396.85" style="enable-background:new 0 0 396.85 396.85;" xml:space="preserve">
<style type="text/css">
	.st0{fill:#272660;}
	.st1{fill:#A23B3E;}
	.st2{fill:#111232;}
	.st3{fill:#FDE5CE;}
	.st4{fill:#F3D2A6;}
	.st5{fill:#FCBF92;}
	.st6{fill:#FCC9A3;}
	.st7{fill:#531518;}
	.st8{fill:#66A7DB;}
	.st9{fill:#FBB784;}
	.st10{fill:#2B72AE;}
	.st11{fill:#E9E9E8;}
	.st12{fill:#FCC9A4;}
	.st13{fill:#64A6DA;}
	.st14{fill:#FBB684;}
</style>
<g>
	<path class="st0" d="M186.38,1190.56c0.74-0.51,1.58-0.67,2.44-0.82c0.91-0.16,1.82-0.34,2.74-0.51c0.04,0.13,0.06,0.27,0.14,0.37
		c0.86,1.2,1.74,2.4,2.59,3.6c0.17,0.24,0.38,0.37,0.65,0.32c0.31-0.05,0.62-0.14,0.93-0.22c0.23,0.26,0.47,0.51,0.67,0.79
		c0.19,0.26,0.52,0.44,0.45,0.85c-0.1,0.61-0.17,1.22-0.25,1.83c-0.19,1.34-0.38,2.68-0.57,4.02c-0.12,0.85-0.25,1.71-0.37,2.56
		c-2.58,0-5.16,0-7.74,0c0-1.72,0-3.44,0-5.16c0-0.38-0.2-0.63-0.51-0.64c-0.36-0.01-0.59,0.24-0.61,0.64c0,0.06,0,0.12,0,0.19
		c0,1.66,0,3.32,0,4.98c-0.89,0-1.79,0-2.68,0c-0.06-0.04-0.11-0.09-0.17-0.12c-0.49-0.25-0.74-0.64-0.74-1.19
		c0-2.17,0-4.34,0.01-6.51c0-0.79,0.21-1.54,0.54-2.26c0.21,0.16,0.41,0.32,0.62,0.48c0.6,0.44,1.31,0.38,1.81-0.17
		c0.25-0.28,0.48-0.57,0.7-0.87c0.42-0.58,0.33-1.3-0.2-1.78C186.68,1190.82,186.53,1190.69,186.38,1190.56z M191.55,1198.15
		c-0.47,0-0.94,0.01-1.41,0c-0.31-0.01-0.46,0.11-0.45,0.43c0.01,0.48,0.01,0.97,0,1.45c-0.01,0.32,0.14,0.44,0.45,0.43
		c0.94-0.01,1.88-0.01,2.82,0c0.31,0,0.46-0.11,0.45-0.43c-0.01-0.48-0.01-0.97,0-1.45c0.01-0.32-0.14-0.44-0.45-0.43
		C192.49,1198.16,192.02,1198.15,191.55,1198.15z"/>
	<path class="st0" d="M207.7,1203.37c-2.58,0-5.16,0-7.74,0c-0.2-1.35-0.4-2.7-0.59-4.06c-0.2-1.4-0.39-2.8-0.58-4.21
		c-0.03-0.25-0.04-0.47,0.17-0.68c0.33-0.34,0.63-0.73,0.94-1.1c0.19,0.06,0.38,0.1,0.56,0.17c0.43,0.16,0.76,0.06,1.03-0.31
		c0.32-0.44,0.66-0.87,0.95-1.32c0.22-0.35,0.44-0.5,0.9-0.41c1.38,0.27,2.76,0.56,4.03,1.21c1,0.51,1.66,1.27,1.87,2.39
		c0.07,0.36,0.1,0.73,0.11,1.1c0.01,2.41,0.01,4.81,0.01,7.22c-0.17,0-0.35,0-0.52,0c0-1.72,0-3.44,0-5.16
		c0-0.41-0.24-0.65-0.61-0.64c-0.31,0.01-0.51,0.26-0.51,0.64C207.7,1199.92,207.7,1201.65,207.7,1203.37z M204.16,1200.46
		c0.49,0,0.99-0.01,1.48,0c0.3,0,0.43-0.13,0.42-0.42c-0.01-0.51,0-1.01,0-1.52c0-0.24-0.13-0.36-0.37-0.36c-0.99,0-1.98,0-2.97,0
		c-0.26,0-0.39,0.12-0.38,0.39c0,0.51,0,1.01,0,1.52c0,0.28,0.13,0.41,0.41,0.4C203.22,1200.46,203.69,1200.46,204.16,1200.46z"/>
	<path class="st0" d="M209.34,1203.37c0-2.41,0-4.81-0.01-7.22c0-0.37-0.04-0.74-0.11-1.1c-0.21-1.12-0.87-1.88-1.87-2.39
		c-1.27-0.65-2.64-0.94-4.03-1.21c-0.45-0.09-0.68,0.06-0.9,0.41c-0.29,0.46-0.63,0.89-0.95,1.32c-0.27,0.37-0.6,0.47-1.03,0.31
		c-0.18-0.07-0.38-0.11-0.56-0.17c-0.36-0.17-0.72-0.34-1.07-0.52c-0.29-0.14-0.58-0.3-0.87-0.45c0.67-0.52,1.33-1.03,2-1.55
		c0.73-0.55,1.46-1.09,2.18-1.64c0.27-0.18,0.53-0.24,0.87-0.18c1.64,0.32,3.29,0.59,4.93,0.94c0.52,0.11,0.99,0.42,1.48,0.64
		c-0.12,0.1-0.25,0.2-0.37,0.3c-0.66,0.54-0.74,1.29-0.22,1.96c0.2,0.25,0.39,0.51,0.61,0.75c0.5,0.56,1.22,0.63,1.83,0.18
		c0.21-0.15,0.41-0.32,0.61-0.48c0.45,0.88,0.58,1.83,0.58,2.8c0.01,1.86-0.02,3.72,0.01,5.58c0.01,0.78-0.21,1.37-0.95,1.7
		C210.78,1203.37,210.06,1203.37,209.34,1203.37z"/>
	<path class="st1" d="M197.95,1192.35c0.29,0.15,0.58,0.3,0.87,0.45c0.36,0.18,0.72,0.35,1.07,0.52c-0.31,0.37-0.6,0.76-0.94,1.1
		c-0.21,0.21-0.2,0.44-0.17,0.68c0.19,1.4,0.38,2.81,0.58,4.21c0.19,1.35,0.39,2.7,0.59,4.06c-1.39,0-2.78,0-4.17,0
		c0.12-0.85,0.25-1.71,0.37-2.56c0.19-1.34,0.38-2.68,0.57-4.02c0.09-0.61,0.16-1.22,0.25-1.83c0.06-0.41-0.26-0.59-0.45-0.85
		c-0.2-0.28-0.45-0.53-0.67-0.79c0.19-0.1,0.38-0.21,0.58-0.3c0.45-0.22,0.91-0.44,1.37-0.67
		C197.86,1192.35,197.9,1192.35,197.95,1192.35z"/>
	<path class="st2" d="M186.94,1203.37c0-1.66,0-3.32,0-4.98c0-0.06,0-0.12,0-0.19c0.01-0.41,0.24-0.65,0.61-0.64
		c0.31,0.01,0.51,0.26,0.51,0.64c0,1.72,0,3.44,0,5.16C187.68,1203.37,187.31,1203.37,186.94,1203.37z"/>
	<path class="st2" d="M207.7,1203.37c0-1.72,0-3.44,0-5.16c0-0.38,0.2-0.63,0.51-0.64c0.36-0.01,0.6,0.23,0.61,0.64
		c0,1.72,0,3.44,0,5.16C208.45,1203.37,208.08,1203.37,207.7,1203.37z"/>
	<path class="st3" d="M197.95,1192.35c-0.05,0-0.09,0-0.14,0c-0.05-0.05-0.1-0.1-0.16-0.15c-1.31-0.99-2.63-1.98-3.94-2.98
		c0.84-0.71,0.78-1.68,0.74-2.63c-0.01-0.11-0.13-0.25-0.24-0.32c-1.63-1.03-2.6-2.49-2.94-4.38c-0.05-0.27-0.06-0.54-0.09-0.82
		c-0.26-0.04-0.5-0.06-0.74-0.12c-0.55-0.13-0.88-0.56-0.89-1.12c-0.01-0.45,0-0.89,0-1.34c-0.01-0.51,0.19-0.88,0.66-1.11
		c0.57,0.01,1.09,0.17,1.55,0.52c0.1,0.07,0.23,0.09,0.35,0.13c0.04-0.12,0.12-0.24,0.12-0.36c0.01-0.67,0.01-1.33,0.01-2
		c1.68,0.62,3.42,0.88,5.2,0.92c1.35,0.03,2.69-0.08,4.02-0.31c0,1.62,0,3.25,0,4.87c0,0.24-0.03,0.49-0.07,0.73
		c-0.39,2.36-1.76,3.94-3.91,4.89c-0.33,0.15-0.67,0.26-1.01,0.38c0.47,0.11,0.93,0.17,1.4,0.18c0.24,0.01,0.33,0.08,0.32,0.32
		c-0.02,0.4,0.02,0.8-0.01,1.19c-0.08,0.93,0.57,1.93,1.78,1.94C199.28,1191.32,198.62,1191.84,197.95,1192.35z"/>
	<path class="st2" d="M196.54,1165.34c1.75-0.23,3.45-0.03,5.12,0.51c1.87,0.59,3.55,1.52,4.9,2.94c0.43,0.45,0.79,0.98,1.08,1.54
		c0.44,0.83,0.29,1.62-0.42,2.25c-0.48,0.42-1.06,0.7-1.6,1.05c-0.02,0.02-0.05,0.03-0.07,0.05c-5.13,0-10.27,0-15.4,0
		c-0.01-0.02-0.02-0.05-0.02-0.07c0.03-0.11,0.08-0.23,0.08-0.34c0.01-0.5,0-0.99,0-1.49c0-0.8,0.29-1.17,1.07-1.36
		c0.72-0.17,1.43-0.37,2.16-0.49c0.96-0.17,1.92-0.34,2.88-0.39c1.01-0.05,2.03-0.03,3.04,0.07c1.27,0.12,2.53,0.35,3.79,0.54
		c0.44,0.07,0.87,0.18,1.3,0.27c0.02-0.04,0.05-0.07,0.07-0.11c-0.25-0.37-0.47-0.78-0.77-1.11c-1.37-1.56-3.09-2.6-5.05-3.25
		C198,1165.69,197.26,1165.53,196.54,1165.34z"/>
	<path class="st0" d="M196.54,1165.34c0.72,0.19,1.46,0.35,2.17,0.59c1.96,0.65,3.68,1.69,5.05,3.25c0.29,0.34,0.51,0.74,0.77,1.11
		c-0.02,0.04-0.05,0.07-0.07,0.11c-0.43-0.09-0.86-0.2-1.3-0.27c-1.26-0.2-2.52-0.42-3.79-0.54c-1.01-0.1-2.03-0.12-3.04-0.07
		c-0.97,0.05-1.93,0.22-2.88,0.39c-0.73,0.13-1.44,0.32-2.16,0.49c-0.78,0.19-1.07,0.57-1.07,1.36c0,0.5,0.01,0.99,0,1.49
		c0,0.12-0.05,0.23-0.08,0.34c-0.65-0.27-1.24-0.62-1.71-1.14c-0.53-0.57-0.66-1.22-0.38-1.96c0.33-0.84,0.89-1.51,1.55-2.1
		c1.85-1.65,4.03-2.62,6.47-3C196.22,1165.37,196.38,1165.36,196.54,1165.34z"/>
	<path class="st4" d="M199.95,1190.81c-1.21,0-1.85-1.01-1.78-1.94c0.03-0.39-0.01-0.79,0.01-1.19c0.01-0.24-0.07-0.32-0.32-0.32
		c-0.47-0.02-0.93-0.08-1.4-0.18c0.34-0.13,0.68-0.24,1.01-0.38c2.15-0.95,3.53-2.53,3.91-4.89c0.04-0.24,0.07-0.49,0.07-0.73
		c0.01-1.62,0-3.25,0-4.87c0.69-0.2,1.39-0.4,2.08-0.6c0,0.68,0,1.36,0.01,2.04c0,0.11,0.06,0.27,0.13,0.3
		c0.08,0.03,0.23-0.03,0.32-0.1c0.46-0.37,1-0.52,1.58-0.54c0.42,0.22,0.65,0.55,0.65,1.03c0,0.43,0,0.87,0,1.3
		c0,0.8-0.49,1.29-1.29,1.31c-0.1,0-0.2,0.01-0.29,0.02c-0.11,0.55-0.18,1.1-0.33,1.63c-0.42,1.52-1.33,2.69-2.66,3.53
		c-0.27,0.17-0.38,0.35-0.34,0.66c0.06,0.5,0.03,1.02,0.18,1.49c0.09,0.31,0.43,0.54,0.65,0.8
		C201.4,1189.71,200.67,1190.26,199.95,1190.81z"/>
	<path class="st0" d="M203.53,1175.68c-0.69,0.2-1.39,0.4-2.08,0.6c-1.33,0.23-2.67,0.34-4.02,0.31c-1.78-0.04-3.52-0.3-5.2-0.92
		c-0.8-0.39-1.61-0.78-2.02-1.65c0,0-0.02-0.01-0.02,0c-0.02-0.1-0.04-0.19-0.06-0.29c0-0.03,0.01-0.05,0.01-0.08
		c5.13,0,10.27,0,15.4,0c0,0.12,0,0.25,0.01,0.37c0,0-0.01,0-0.01,0c-0.3,0.34-0.55,0.73-0.9,1.01
		C204.32,1175.31,203.91,1175.48,203.53,1175.68z"/>
	<path class="st2" d="M193.71,1189.23c1.31,0.99,2.63,1.98,3.94,2.98c0.06,0.04,0.11,0.1,0.16,0.15c-0.46,0.22-0.91,0.44-1.37,0.67
		c-0.19,0.1-0.39,0.2-0.58,0.3c-0.31,0.07-0.61,0.17-0.93,0.22c-0.28,0.04-0.48-0.08-0.65-0.32c-0.86-1.21-1.73-2.4-2.59-3.6
		c-0.07-0.1-0.09-0.25-0.14-0.37c0.37-0.08,0.75-0.14,1.12-0.23C193.06,1188.91,193.4,1188.99,193.71,1189.23z"/>
	<path class="st1" d="M211.86,1193.28c-0.2,0.16-0.41,0.32-0.61,0.48c-0.61,0.45-1.33,0.38-1.83-0.18c-0.21-0.24-0.41-0.5-0.61-0.75
		c-0.52-0.67-0.44-1.42,0.22-1.96c0.12-0.1,0.25-0.2,0.37-0.3C210.53,1191.2,211.34,1192.11,211.86,1193.28z"/>
	<path class="st1" d="M186.38,1190.56c0.15,0.13,0.3,0.26,0.45,0.39c0.53,0.48,0.61,1.2,0.2,1.78c-0.22,0.3-0.45,0.59-0.7,0.87
		c-0.49,0.55-1.21,0.61-1.81,0.17c-0.21-0.15-0.41-0.32-0.62-0.48C184.43,1192.11,185.24,1191.19,186.38,1190.56z"/>
	<path class="st1" d="M190.21,1174.03c0.41,0.87,1.22,1.26,2.02,1.65c0,0.67,0,1.33-0.01,2c0,0.12-0.08,0.24-0.12,0.36
		c-0.12-0.04-0.26-0.06-0.35-0.13c-0.46-0.35-0.98-0.5-1.55-0.52C190.2,1176.27,190.21,1175.15,190.21,1174.03z"/>
	<path class="st1" d="M203.53,1175.68c0.38-0.21,0.79-0.37,1.12-0.64c0.34-0.28,0.6-0.67,0.9-1.01c0.01,1.12,0.01,2.24,0.02,3.35
		c-0.58,0.02-1.12,0.16-1.58,0.54c-0.08,0.07-0.24,0.13-0.32,0.1c-0.08-0.03-0.13-0.2-0.13-0.3
		C203.53,1177.04,203.53,1176.36,203.53,1175.68z"/>
	<path class="st4" d="M205.56,1174.04c0-0.12,0-0.25-0.01-0.37c0.02-0.02,0.05-0.03,0.07-0.05
		C205.6,1173.76,205.58,1173.9,205.56,1174.04z"/>
	<path class="st3" d="M190.14,1173.74c0.02,0.1,0.04,0.19,0.06,0.29C190.18,1173.93,190.16,1173.84,190.14,1173.74z"/>
	<path class="st2" d="M191.55,1198.15c0.47,0,0.94,0.01,1.41,0c0.31-0.01,0.46,0.11,0.45,0.43c-0.01,0.48-0.01,0.97,0,1.45
		c0.01,0.32-0.15,0.44-0.45,0.43c-0.94-0.01-1.88-0.01-2.82,0c-0.31,0-0.46-0.11-0.45-0.43c0.01-0.48,0.01-0.97,0-1.45
		c-0.01-0.32,0.15-0.44,0.45-0.43C190.61,1198.16,191.08,1198.15,191.55,1198.15z"/>
	<path class="st2" d="M204.16,1200.46c-0.47,0-0.94,0-1.41,0c-0.28,0-0.41-0.12-0.41-0.4c0-0.51,0-1.01,0-1.52
		c0-0.26,0.12-0.39,0.38-0.39c0.99,0,1.98,0,2.97,0c0.24,0,0.37,0.12,0.37,0.36c0,0.51-0.01,1.01,0,1.52c0,0.3-0.13,0.43-0.42,0.42
		C205.15,1200.46,204.66,1200.46,204.16,1200.46z"/>
</g>
<g>
	<path class="st0" d="M857.3,1106.41c-2.43,0-4.87,0.03-7.3,0c-1.68-0.02-2.8-1.7-2.31-3.31c0.31-1.03,0.57-2.07,0.78-3.13
		c0.59-2.97,1.12-5.95,1.73-8.92c0.41-1.98,2.16-3.36,4.18-3.38c0.95-0.01,1.89,0.01,2.84,0.01c-0.34,0.27-0.67,0.55-1.01,0.81
		c-0.56,0.43-1.13,0.86-1.73,1.32c0.16,0.12,0.26,0.21,0.37,0.28c0.94,0.56,1.87,1.13,2.82,1.67c0.32,0.18,0.33,0.33,0.08,0.57
		c-0.3,0.28-0.56,0.58-0.87,0.85c-0.23,0.21-0.21,0.39-0.05,0.62c1.09,1.55,2.18,3.11,3.27,4.67c-0.34,0.18-0.76,0.27-0.99,0.54
		c-0.64,0.75-1.19,1.57-1.77,2.36C857.32,1103.05,857.31,1104.73,857.3,1106.41z M854.4,1095.17c-1.55,1.78-1.74,4.07-0.93,5.99
		c0.03,0.08,0.14,0.19,0.21,0.19c0.41,0.02,0.82,0.01,1.31,0.01c-0.07-0.2-0.11-0.32-0.16-0.44c-0.52-1.31-0.52-2.61,0.06-3.91
		c0.15-0.34,0.52-0.73,0.44-1.01c-0.09-0.33-0.55-0.55-0.85-0.82C854.47,1095.19,854.45,1095.19,854.4,1095.17z"/>
	<path class="st5" d="M864.78,1076.15c0,0.48-0.04,0.97,0.03,1.44c0.19,1.28,0,2.5-0.52,3.67c-0.54,1.22-1.47,2.09-2.57,2.8h-0.82
		c-0.72-0.21-1.43-0.41-2.15-0.62c-0.88-0.52-1.69-1.12-2.3-1.96c-0.67-0.9-1.12-1.89-1.24-3.03c-0.01-0.05-0.05-0.1-0.08-0.15
		c0-1.44,0.01-2.88,0.01-4.32c0.08-0.04,0.17-0.08,0.26-0.12c0.1,0.04,0.21,0.12,0.31,0.11c1.18-0.14,2.33-0.42,3.37-1.03
		c1.67-0.96,3.33-1.93,5-2.91c0.3-0.18,0.41-0.08,0.43,0.22c0.03,0.81,0.05,1.62,0.09,2.42c0.02,0.44,0.06,0.87,0.09,1.3
		c0.52-0.02,0.94,0.16,1.16,0.65c0.19,0.41,0.15,0.83-0.17,1.12C865.44,1075.95,865.08,1076.02,864.78,1076.15z"/>
	<path class="st1" d="M855.4,1073.86c-0.09,0.04-0.17,0.08-0.26,0.12c-0.48,0.03-0.96,0.05-1.44,0.08c0.03-1.41-0.13-2.82,0.26-4.21
		c0.87-3.12,3.9-5.38,7.04-5.24c0.58,0.5,1.15,1,1.74,1.5c0.1,0.08,0.22,0.14,0.33,0.2c0,0.84,0,1.67,0.01,2.51
		c0,0.16,0.05,0.31,0.08,0.47c-1.38,0.81-2.76,1.62-4.14,2.43C857.81,1072.43,856.61,1073.14,855.4,1073.86z"/>
	<path class="st0" d="M875.2,1102.18c0.09,0.24,0.18,0.47,0.27,0.71c0.69,1.64-0.44,3.5-2.2,3.52c-2.44,0.04-4.88,0-7.32,0
		c0-1.68,0-3.36,0.01-5.04c0.75,0,1.5,0,2.25,0c0.54,0,1.08,0,1.61,0c1.09,0,2.18-0.02,3.27,0.01c0.35,0.01,0.71,0.09,1.03,0.22
		C874.51,1101.74,874.85,1101.98,875.2,1102.18z"/>
	<path class="st0" d="M860.9,1084.05c0.27,0,0.55,0,0.82,0c0.3,0,0.6,0,0.9,0c0.62,0.01,1.25,0.01,1.87,0.02
		c0.12,0.03,0.25,0.07,0.37,0.1c0.11,0.14,0.2,0.32,0.34,0.42c1.25,0.87,2.07,2.03,2.37,3.54c0.03,0.45,0.07,0.89,0.1,1.34
		c-0.1,0.54-0.19,1.08-0.29,1.63c-0.08,0.14-0.19,0.27-0.24,0.42c-0.15,0.42-0.39,0.48-0.73,0.22c-0.06-0.04-0.13-0.07-0.2-0.1
		c-0.41-0.39-0.83-0.77-1.24-1.16c-0.15-0.22-0.31-0.44-0.46-0.65c-0.3-0.88-0.6-1.76-0.92-2.69c-1.88,0.38-3.87,0.78-5.86,1.19
		c-0.06,0.03-0.13,0.05-0.19,0.08c-0.09-0.08-0.22-0.15-0.25-0.26c-0.04-0.15-0.01-0.32-0.02-0.48c0-1.18,0-2.35,0-3.61
		c0.51,0,0.98,0,1.45,0C859.46,1084.05,860.18,1084.05,860.9,1084.05z"/>
	<path class="st5" d="M868.11,1073.98v4.32c-0.16,1.06-0.51,2.05-1.11,2.94c-0.57,0.84-1.3,1.51-2.19,2.01
		c-0.12,0.07-0.21,0.19-0.31,0.28c-0.63,0.18-1.25,0.35-1.88,0.53h-0.9c1.1-0.71,2.03-1.58,2.57-2.8c0.52-1.17,0.71-2.39,0.52-3.67
		c-0.07-0.47-0.03-0.96-0.03-1.44c0.3-0.13,0.66-0.2,0.9-0.41c0.32-0.29,0.36-0.71,0.17-1.12c-0.22-0.49-0.64-0.67-1.16-0.65
		c-0.03-0.43-0.07-0.86-0.09-1.3c-0.04-0.8-0.06-1.61-0.09-2.42c-0.02-0.3-0.13-0.4-0.43-0.22c-1.67,0.98-3.33,1.95-5,2.91
		c-1.04,0.61-2.19,0.89-3.37,1.03c-0.1,0.01-0.21-0.07-0.31-0.11c1.2-0.71,2.41-1.43,3.62-2.14c1.38-0.81,2.76-1.62,4.13-2.43
		c0.64-0.31,0.63-0.31,1.13,0.25c0.06,0.08,0.15,0.14,0.22,0.21C865.71,1071.16,866.91,1072.57,868.11,1073.98z"/>
	<path class="st0" d="M866.23,1091.63c0.07,0.03,0.14,0.06,0.2,0.1c0.35,0.25,0.58,0.2,0.73-0.22c0.05-0.15,0.16-0.28,0.24-0.42
		c0.45-0.16,0.91-0.33,1.52-0.54c-0.47-0.42-0.85-0.75-1.23-1.08c-0.03-0.45-0.07-0.89-0.1-1.34c0.45,0.15,0.9,0.31,1.35,0.44
		c0.89,0.27,1.79,0.19,2.69,0.09c0.34,0.42,0.67,0.84,1.01,1.26c-0.09,0.09-0.21,0.16-0.27,0.26c-0.69,1.22-1.36,2.46-2.07,3.66
		c-0.35,0.58-0.79,1.11-1.18,1.67c-0.22-0.36-0.46-0.29-0.72-0.04c-0.13,0.12-0.27,0.24-0.41,0.34c-0.23,0.17-0.26,0.32-0.06,0.55
		c0.14,0.16,0.2,0.39,0.3,0.59c-0.08,0.06-0.17,0.12-0.24,0.2c-0.91,1.07-1.82,2.15-2.74,3.22c-0.29-0.37-0.6-0.74-0.87-1.13
		c-0.3-0.43-0.68-0.7-1.2-0.77c1.17-1.68,2.33-3.35,3.58-5.14c-0.48-0.43-0.95-0.87-1.48-1.35
		C865.64,1091.84,865.93,1091.74,866.23,1091.63z"/>
	<path class="st0" d="M869.11,1095.51c0.4-0.55,0.84-1.08,1.18-1.67c0.72-1.21,1.38-2.44,2.07-3.66c0.06-0.1,0.18-0.18,0.27-0.26
		c0.49,0.72,0.55,1.56,0.7,2.38c0.59,3.07,1.17,6.15,1.75,9.22c0.04,0.22,0.07,0.44,0.11,0.66c-0.36-0.2-0.7-0.43-1.07-0.58
		c-0.32-0.13-0.69-0.21-1.03-0.22c-1.09-0.03-2.18-0.01-3.27-0.01c0.03-0.12,0.05-0.23,0.08-0.35c0.32-1.01,0.37-2.04,0.2-3.09
		C869.96,1097.05,869.56,1096.27,869.11,1095.51z"/>
	<path class="st1" d="M868.12,1073.98c-1.2-1.41-2.41-2.82-3.61-4.23c0-1.6,0.01-3.21,0.01-4.81c0.46,0.19,0.93,0.39,1.39,0.58
		c0.13,0.05,0.27,0.1,0.4,0.15c0.08,0.09,0.15,0.19,0.24,0.26c1.95,1.44,2.96,3.37,3.01,5.8c0,0.78-0.01,1.55-0.01,2.33
		C869.07,1074.03,868.59,1074.01,868.12,1073.98z"/>
	<path class="st6" d="M857.3,1106.41c0.01-1.68,0.02-3.36,0.03-5.04c1.43,0,2.87,0,4.3,0c0.21,0,0.42,0,0.63,0
		c0.05,0.07,0.08,0.16,0.15,0.2c0.5,0.37,0.7,0.86,0.67,1.48c-0.03,0.58-0.03,1.17,0,1.75c0.03,0.58-0.22,1-0.63,1.37
		c-0.07,0.06-0.13,0.15-0.19,0.23C860.61,1106.41,858.95,1106.41,857.3,1106.41z"/>
	<path class="st7" d="M869.56,1071.73c-0.05-2.43-1.06-4.36-3.01-5.8c-0.09-0.07-0.16-0.17-0.24-0.26c0.92-0.99,2.42-1.34,3.76-0.86
		c1.33,0.48,2.29,1.76,2.37,3.16c0.08,1.48-0.7,2.83-2.03,3.47C870.14,1071.57,869.85,1071.64,869.56,1071.73z"/>
	<path class="st8" d="M857.3,1087.66c0,0.16-0.03,0.33,0.02,0.48c0.03,0.1,0.16,0.17,0.25,0.26c0.78,2.33,1.56,4.65,2.33,6.99
		c0.35,1.06,0.68,2.14,1.02,3.2c-0.27-0.04-0.54-0.07-0.81-0.11c-1.09-1.56-2.18-3.11-3.27-4.67c-0.16-0.23-0.19-0.41,0.05-0.62
		c0.3-0.27,0.57-0.58,0.87-0.85c0.26-0.24,0.25-0.39-0.08-0.57c-0.95-0.54-1.88-1.11-2.82-1.67c-0.11-0.07-0.21-0.16-0.37-0.28
		c0.6-0.46,1.17-0.88,1.73-1.32c0.34-0.26,0.67-0.54,1.01-0.81C857.24,1087.68,857.27,1087.67,857.3,1087.66z"/>
	<path class="st0" d="M871.62,1088.66c-0.9,0.1-1.81,0.17-2.69-0.09c-0.45-0.14-0.9-0.3-1.35-0.44c-0.3-1.51-1.12-2.66-2.37-3.54
		c-0.14-0.1-0.23-0.28-0.34-0.42c2.88-0.57,5.75,1.08,6.69,3.86C871.63,1088.23,871.61,1088.45,871.62,1088.66z"/>
	<path class="st5" d="M862.26,1106.41c0.06-0.08,0.11-0.17,0.19-0.23c0.41-0.37,0.65-0.79,0.63-1.37c-0.03-0.58-0.03-1.17,0-1.75
		c0.03-0.62-0.17-1.11-0.67-1.48c-0.06-0.05-0.1-0.14-0.15-0.2c1.22,0,2.45,0,3.67,0l0.03-0.01c0,1.68,0,3.36-0.01,5.04
		C864.72,1106.41,863.49,1106.41,862.26,1106.41z"/>
	<path class="st9" d="M868.12,1073.98c0.48,0.03,0.96,0.05,1.44,0.08c0.86,0.43,1.44,1.06,1.44,2.08c0.01,1.16-0.95,2.14-2.12,2.16
		c-0.25,0.01-0.51,0-0.76,0C868.12,1076.86,868.12,1075.42,868.12,1073.98z"/>
	<path class="st9" d="M853.7,1074.06c0.48-0.03,0.96-0.05,1.44-0.08c0,1.44,0,2.88,0,4.31c-0.79,0.03-1.55,0.03-2.18-0.58
		c-1.08-1.05-0.9-2.69,0.4-3.46C853.47,1074.19,853.59,1074.12,853.7,1074.06z"/>
	<path class="st7" d="M864.52,1064.94c0,1.6-0.01,3.21-0.01,4.81c-0.08-0.07-0.16-0.14-0.23-0.21c-0.49-0.56-0.49-0.56-1.12-0.25
		c-0.03-0.16-0.08-0.31-0.08-0.47c-0.01-0.84-0.01-1.67-0.01-2.51c0-0.56,0-1.13,0-1.69
		C863.55,1064.73,864.03,1064.83,864.52,1064.94z"/>
	<path class="st7" d="M863.07,1064.62c0,0.56,0,1.13,0,1.69c-0.11-0.07-0.23-0.12-0.33-0.2c-0.58-0.49-1.16-1-1.74-1.5
		C861.69,1064.62,862.38,1064.62,863.07,1064.62z"/>
	<path class="st9" d="M860.9,1084.05c-0.72,0-1.44,0-2.16,0c0-0.2,0.01-0.41,0.01-0.61C859.47,1083.64,860.18,1083.85,860.9,1084.05
		z"/>
	<path class="st9" d="M862.62,1084.05c0.63-0.17,1.25-0.35,1.88-0.52c0,0.18,0,0.36,0,0.54
		C863.87,1084.06,863.25,1084.06,862.62,1084.05z"/>
	<path class="st5" d="M860.09,1098.47c0.27,0.04,0.54,0.07,0.81,0.11c0,0,0,0,0,0c0.03,0.04,0.06,0.07,0.09,0.11
		c0.24,0.29,0.48,0.58,0.72,0.87c-0.03,0.6-0.06,1.21-0.08,1.81c-1.43,0-2.87,0-4.3,0c0.59-0.79,1.14-1.61,1.77-2.36
		C859.33,1098.75,859.76,1098.65,860.09,1098.47z"/>
	<path class="st10" d="M854.4,1095.17c0.05,0.02,0.06,0.02,0.07,0.03c0.3,0.27,0.76,0.49,0.85,0.82c0.08,0.27-0.29,0.66-0.44,1.01
		c-0.57,1.29-0.58,2.6-0.06,3.91c0.05,0.12,0.09,0.24,0.16,0.44c-0.48,0-0.89,0.01-1.31-0.01c-0.08,0-0.18-0.11-0.21-0.19
		C852.66,1099.24,852.85,1096.95,854.4,1095.17z"/>
	<path class="st0" d="M865.23,1100.37c0.91-1.07,1.82-2.15,2.74-3.22c0.07-0.08,0.16-0.13,0.24-0.2c0.04,0.06,0.1,0.11,0.13,0.18
		c0.65,1.43,0.53,2.84-0.13,4.24c-0.75,0-1.5,0-2.25,0l-0.03,0.01C865.7,1101.04,865.47,1100.71,865.23,1100.37z"/>
	<path class="st10" d="M868.21,1101.37c0.66-1.39,0.78-2.8,0.13-4.24c-0.03-0.07-0.09-0.12-0.13-0.18c-0.1-0.2-0.16-0.43-0.3-0.59
		c-0.2-0.23-0.17-0.38,0.06-0.55c0.14-0.1,0.28-0.22,0.41-0.34c0.26-0.25,0.5-0.31,0.72,0.04c0.46,0.76,0.85,1.53,1,2.42
		c0.17,1.05,0.12,2.07-0.2,3.09c-0.04,0.11-0.05,0.23-0.08,0.35C869.29,1101.37,868.75,1101.37,868.21,1101.37z"/>
	<path class="st11" d="M861.71,1099.56c-0.24-0.29-0.48-0.58-0.72-0.87c-0.03-0.04-0.06-0.07-0.09-0.11c0,0,0,0,0,0
		c-0.34-1.07-0.67-2.14-1.02-3.2c-0.77-2.33-1.55-4.66-2.33-6.99c0.06-0.03,0.13-0.05,0.19-0.08c1.27,1.93,2.55,3.85,3.87,5.85
		c1.01-1.51,1.96-2.93,2.91-4.35c0.15,0.22,0.31,0.44,0.46,0.65c-0.53,1.61-1.07,3.22-1.59,4.84c-0.35,1.09-0.7,2.18-1.04,3.27l0,0
		c-0.03,0.04-0.06,0.07-0.09,0.11C862.08,1098.98,861.9,1099.27,861.71,1099.56z"/>
	<path class="st12" d="M864.53,1089.82c-0.95,1.42-1.89,2.83-2.91,4.35c-1.32-2-2.59-3.92-3.87-5.85c1.99-0.4,3.97-0.8,5.86-1.19
		C863.93,1088.06,864.23,1088.94,864.53,1089.82z"/>
	<path class="st8" d="M862.35,1098.58c0.35-1.09,0.69-2.18,1.04-3.27c0.53-1.61,1.06-3.22,1.59-4.84c0.41,0.39,0.83,0.77,1.24,1.16
		c-0.29,0.11-0.58,0.21-0.97,0.35c0.53,0.48,1.01,0.92,1.48,1.35c-1.25,1.79-2.41,3.46-3.58,5.14
		C862.89,1098.51,862.62,1098.55,862.35,1098.58z"/>
	<path class="st13" d="M867.68,1089.46c0.38,0.33,0.75,0.66,1.23,1.08c-0.61,0.22-1.06,0.38-1.52,0.54
		C867.49,1090.55,867.58,1090.01,867.68,1089.46z"/>
	<path class="st14" d="M862.35,1098.58c0.27-0.04,0.54-0.07,0.81-0.11c0.52,0.07,0.9,0.34,1.2,0.77c0.27,0.39,0.58,0.75,0.87,1.13
		c0.23,0.34,0.46,0.67,0.69,1.01c-1.22,0-2.45,0-3.67,0c-0.21,0-0.42,0-0.63,0c0.03-0.6,0.06-1.21,0.08-1.81
		c0.19-0.29,0.37-0.58,0.56-0.87C862.29,1098.65,862.32,1098.61,862.35,1098.58L862.35,1098.58z"/>
	<path class="st8" d="M860.9,1098.58c0.03,0.04,0.06,0.07,0.09,0.11C860.96,1098.65,860.93,1098.61,860.9,1098.58z"/>
	<path class="st8" d="M862.35,1098.58c-0.03,0.04-0.06,0.07-0.09,0.11C862.29,1098.65,862.32,1098.61,862.35,1098.58z"/>
</g>
<g>
	<path class="st0" d="M160.18,389.04c-21.81,0.03-43.62,0.27-65.42,0.01c-15.05-0.18-25.11-15.27-20.74-29.7
		c2.79-9.2,5.07-18.59,6.95-28.02c5.3-26.61,10.02-53.35,15.47-79.93c3.63-17.72,19.4-30.09,37.48-30.27
		c8.48-0.09,16.96,0.05,25.44,0.08c-3.01,2.42-5.98,4.89-9.03,7.25c-5.04,3.89-10.13,7.71-15.53,11.82
		c1.46,1.09,2.35,1.88,3.35,2.48c8.39,5.04,16.75,10.15,25.25,15.01c2.88,1.65,2.97,2.97,0.68,5.11c-2.65,2.48-5.05,5.24-7.76,7.65
		c-2.1,1.87-1.85,3.52-0.4,5.57c9.8,13.92,19.55,27.88,29.32,41.82c-3.01,1.58-6.83,2.46-8.87,4.86
		c-5.69,6.7-10.65,14.03-15.89,21.11C160.37,358.94,160.27,373.99,160.18,389.04z M134.23,288.31
		c-13.91,15.97-15.62,36.51-8.38,53.73c0.31,0.74,1.24,1.69,1.92,1.72c3.69,0.17,7.39,0.08,11.71,0.08
		c-0.65-1.77-1.02-2.86-1.44-3.93c-4.68-11.75-4.64-23.44,0.5-35.03c1.37-3.09,4.65-6.56,3.97-9.01c-0.81-2.92-4.92-4.93-7.61-7.33
		C134.81,288.47,134.66,288.46,134.23,288.31z"/>
	<path class="st5" d="M227.27,117.79c0,4.3-0.36,8.69,0.27,12.91c1.7,11.47,0,22.41-4.66,32.89c-4.84,10.94-13.18,18.73-23.04,25.1
		h-7.35c-6.45-1.88-12.82-3.67-19.27-5.56c-7.89-4.66-15.15-10.04-20.62-17.57c-6.01-8.07-10.04-16.94-11.12-27.16
		c-0.09-0.45-0.45-0.9-0.72-1.35c0-12.91,0.09-25.81,0.09-38.72c0.72-0.36,1.52-0.72,2.33-1.08c0.9,0.36,1.88,1.08,2.78,0.98
		c10.58-1.25,20.88-3.76,30.21-9.23c14.97-8.6,29.85-17.3,44.82-26.08c2.69-1.61,3.68-0.72,3.85,1.97
		c0.27,7.26,0.45,14.52,0.81,21.69c0.18,3.94,0.54,7.8,0.81,11.65c4.66-0.18,8.43,1.44,10.4,5.83c1.7,3.67,1.34,7.44-1.52,10.04
		C233.19,116,229.96,116.63,227.27,117.79z"/>
	<path class="st1" d="M143.15,97.29c-0.77,0.37-1.54,0.73-2.31,1.1c-4.3,0.23-8.6,0.46-12.9,0.69c0.26-12.6-1.14-25.26,2.34-37.69
		c7.81-27.97,34.92-48.24,63.09-46.97c5.18,4.48,10.35,8.97,15.57,13.41c0.87,0.74,1.97,1.22,2.97,1.82
		c0,7.49-0.03,14.99,0.05,22.48c0.01,1.39,0.49,2.78,0.75,4.18c-12.36,7.25-24.73,14.48-37.07,21.75
		C164.79,84.44,153.98,90.87,143.15,97.29z"/>
	<path class="st0" d="M320.68,351.12c0.82,2.11,1.58,4.24,2.46,6.33c6.21,14.69-3.93,31.35-19.74,31.59
		c-21.87,0.33-43.74,0.03-65.61,0c0.02-15.05,0.03-30.1,0.05-45.15c6.72,0,13.45,0,20.17,0c4.82,0,9.65,0,14.47,0
		c9.77,0.01,19.55-0.14,29.32,0.11c3.12,0.08,6.36,0.79,9.27,1.93C314.43,347.24,317.49,349.35,320.68,351.12z"/>
	<path class="st0" d="M192.46,188.65c2.46,0,4.92,0,7.38,0c2.69,0,5.39,0,8.08,0c5.6,0.05,11.2,0.09,16.8,0.14
		c1.12,0.31,2.23,0.63,3.35,0.94c1,1.26,1.78,2.85,3.04,3.74c11.21,7.83,18.53,18.2,21.21,31.71c0.29,3.99,0.59,7.99,0.88,11.98
		c-0.86,4.86-1.71,9.72-2.57,14.58c-0.73,1.25-1.67,2.42-2.14,3.76c-1.31,3.78-3.45,4.27-6.55,2.01c-0.53-0.39-1.17-0.63-1.75-0.94
		c-3.71-3.45-7.42-6.91-11.13-10.36c-1.37-1.95-2.73-3.91-4.1-5.86c-2.68-7.88-5.37-15.76-8.21-24.1
		c-16.88,3.42-34.69,7.02-52.49,10.63c-0.58,0.23-1.16,0.45-1.73,0.68c-0.78-0.75-1.96-1.39-2.23-2.29
		c-0.39-1.32-0.13-2.83-0.15-4.26c0-10.54,0-21.08,0-32.35c4.54,0,8.76,0,12.98,0C179.58,188.65,186.02,188.65,192.46,188.65z"/>
	<path class="st5" d="M257.12,98.34v38.72c-1.43,9.5-4.57,18.38-9.95,26.35c-5.11,7.53-11.65,13.54-19.63,18.02
		c-1.08,0.63-1.88,1.7-2.78,2.51c-5.65,1.61-11.2,3.14-16.85,4.75h-8.07c9.86-6.36,18.2-14.16,23.04-25.1
		c4.66-10.49,6.36-21.42,4.66-32.89c-0.63-4.21-0.27-8.6-0.27-12.91c2.69-1.16,5.92-1.79,8.07-3.68c2.87-2.6,3.23-6.36,1.52-10.04
		c-1.97-4.39-5.74-6-10.4-5.83c-0.27-3.85-0.63-7.71-0.81-11.65c-0.36-7.17-0.54-14.43-0.81-21.69c-0.18-2.69-1.17-3.59-3.85-1.97
		c-14.97,8.78-29.85,17.48-44.82,26.08c-9.32,5.47-19.63,7.98-30.21,9.23c-0.9,0.09-1.88-0.63-2.78-0.98
		c10.76-6.36,21.6-12.82,32.45-19.18c12.37-7.26,24.74-14.52,37.02-21.78c5.74-2.78,5.65-2.78,10.13,2.24
		c0.54,0.72,1.34,1.26,1.97,1.88C235.61,73.06,246.37,85.7,257.12,98.34z"/>
	<path class="st0" d="M240.2,256.57c0.59,0.31,1.22,0.55,1.75,0.94c3.1,2.26,5.24,1.77,6.55-2.01c0.46-1.34,1.41-2.51,2.14-3.76
		c4.06-1.46,8.12-2.91,13.58-4.87c-4.25-3.75-7.63-6.72-11.01-9.7c-0.29-3.99-0.59-7.99-0.88-11.99c4.04,1.33,8.04,2.76,12.11,3.98
		c7.96,2.39,16.06,1.74,24.15,0.84c3.02,3.75,6.03,7.51,9.05,11.26c-0.82,0.78-1.89,1.41-2.42,2.35
		c-6.22,10.93-12.17,22.01-18.59,32.82c-3.11,5.24-7.04,9.99-10.6,14.96c-1.97-3.19-4.14-2.6-6.47-0.4c-1.16,1.1-2.4,2.15-3.7,3.08
		c-2.07,1.49-2.36,2.84-0.55,4.93c1.26,1.46,1.81,3.52,2.68,5.31c-0.72,0.58-1.56,1.06-2.15,1.75c-8.19,9.6-16.36,19.23-24.52,28.86
		c-2.62-3.36-5.38-6.61-7.81-10.1c-2.68-3.83-6.12-6.25-10.76-6.91c10.46-15.02,20.92-30.03,32.08-46.06
		c-4.26-3.88-8.55-7.8-13.3-12.13C234.98,258.47,237.59,257.52,240.2,256.57z"/>
	<path class="st0" d="M266.04,291.39c3.56-4.97,7.49-9.72,10.6-14.96c6.42-10.81,12.37-21.89,18.59-32.82
		c0.53-0.94,1.6-1.57,2.42-2.35c4.4,6.41,4.9,14.01,6.31,21.29c5.31,27.53,10.5,55.09,15.72,82.65c0.37,1.97,0.67,3.95,1,5.92
		c-3.19-1.77-6.25-3.88-9.62-5.2c-2.91-1.14-6.15-1.85-9.27-1.93c-9.77-0.25-19.54-0.1-29.32-0.11c0.24-1.03,0.41-2.09,0.73-3.1
		c2.88-9.08,3.3-18.3,1.78-27.68C273.69,305.13,270.12,298.17,266.04,291.39z"/>
	<path class="st1" d="M257.15,98.37c-10.79-12.64-21.57-25.28-32.36-37.91c0.03-14.37,0.07-28.74,0.1-43.11
		c4.15,1.73,8.3,3.46,12.46,5.18c1.19,0.49,2.41,0.91,3.61,1.36c0.71,0.78,1.32,1.7,2.15,2.32c17.48,12.95,26.55,30.25,27.02,52.02
		c-0.03,6.95-0.06,13.9-0.09,20.85C265.74,98.84,261.44,98.6,257.15,98.37z"/>
	<path class="st6" d="M160.18,389.04c0.1-15.05,0.19-30.09,0.29-45.14c12.84,0,25.69-0.01,38.53-0.01c1.88,0.01,3.75,0.02,5.63,0.03
		c0.44,0.62,0.76,1.4,1.34,1.83c4.47,3.33,6.27,7.72,6,13.27c-0.25,5.22-0.24,10.47,0,15.7c0.24,5.17-1.94,9-5.63,12.28
		c-0.65,0.58-1.12,1.37-1.68,2.06C189.83,389.05,175.01,389.04,160.18,389.04z"/>
	<path class="st7" d="M270.13,78.22c-0.48-21.77-9.54-39.07-27.02-52.02c-0.83-0.62-1.44-1.54-2.15-2.32
		c8.25-8.91,21.68-11.98,33.68-7.68c11.93,4.27,20.56,15.77,21.24,28.3c0.72,13.27-6.3,25.4-18.17,31.1
		C275.31,76.75,272.66,77.36,270.13,78.22z"/>
	<path class="st8" d="M160.16,221c0.02,1.43-0.25,2.94,0.15,4.26c0.27,0.9,1.45,1.54,2.23,2.29c6.96,20.87,13.97,41.72,20.87,62.61
		c3.15,9.53,6.08,19.14,9.12,28.71c-2.43-0.32-4.87-0.64-7.3-0.95c-9.77-13.94-19.52-27.9-29.32-41.82c-1.44-2.05-1.7-3.7,0.4-5.57
		c2.71-2.41,5.11-5.17,7.76-7.65c2.29-2.14,2.21-3.47-0.68-5.11c-8.5-4.86-16.86-9.97-25.25-15.01c-1-0.6-1.89-1.39-3.35-2.48
		c5.4-4.1,10.49-7.92,15.53-11.82c3.05-2.36,6.02-4.83,9.03-7.25C159.62,221.14,159.89,221.07,160.16,221z"/>
	<path class="st0" d="M288.6,230c-8.09,0.9-16.19,1.55-24.15-0.84c-4.07-1.22-8.08-2.65-12.11-3.98
		c-2.68-13.51-10-23.88-21.21-31.71c-1.27-0.89-2.04-2.48-3.04-3.74c25.81-5.09,51.56,9.72,59.96,34.58
		C288.63,226.07,288.43,228.09,288.6,230z"/>
	<path class="st5" d="M204.66,389.06c0.55-0.69,1.02-1.48,1.68-2.06c3.69-3.28,5.87-7.11,5.63-12.28c-0.24-5.22-0.25-10.47,0-15.7
		c0.27-5.55-1.54-9.94-6-13.27c-0.58-0.43-0.9-1.21-1.34-1.83c10.97,0.01,21.94,0.03,32.91,0.04l0.3-0.09
		c-0.02,15.05-0.03,30.1-0.05,45.15C226.75,389.04,215.7,389.05,204.66,389.06z"/>
	<path class="st9" d="M257.15,98.37c4.3,0.24,8.59,0.47,12.89,0.71c7.72,3.83,12.87,9.5,12.95,18.6c0.09,10.44-8.55,19.19-19,19.39
		c-2.28,0.04-4.55,0.01-6.83,0C257.15,124.17,257.15,111.27,257.15,98.37z"/>
	<path class="st9" d="M127.94,99.08c4.3-0.23,8.6-0.46,12.9-0.69c-0.01,12.89-0.02,25.78-0.04,38.66
		c-7.04,0.3-13.92,0.23-19.51-5.17c-9.72-9.38-8.09-24.09,3.54-31.03C125.86,100.24,126.91,99.67,127.94,99.08z"/>
	<path class="st7" d="M224.88,17.35c-0.03,14.37-0.07,28.74-0.1,43.11c-0.68-0.63-1.42-1.21-2.03-1.9c-4.41-5-4.4-5.01-10.06-2.25
		c-0.26-1.39-0.73-2.78-0.75-4.18c-0.08-7.49-0.05-14.99-0.05-22.48c0.01-5.05,0.01-10.11,0.02-15.16
		C216.24,15.44,220.56,16.39,224.88,17.35z"/>
	<path class="st7" d="M211.92,14.48c-0.01,5.05-0.01,10.11-0.02,15.16c-0.99-0.6-2.09-1.08-2.97-1.82
		c-5.22-4.44-10.39-8.93-15.57-13.41C199.55,14.44,205.74,14.46,211.92,14.48z"/>
	<path class="st9" d="M192.46,188.65c-6.44,0-12.88,0-19.32,0c0.03-1.83,0.05-3.66,0.08-5.49
		C179.63,184.99,186.05,186.82,192.46,188.65z"/>
	<path class="st9" d="M207.92,188.65c5.61-1.57,11.22-3.14,16.82-4.7c-0.01,1.61-0.01,3.23-0.02,4.84
		C219.13,188.74,213.52,188.7,207.92,188.65z"/>
	<path class="st5" d="M185.23,317.92c2.43,0.32,4.87,0.64,7.3,0.95c0,0-0.03-0.04-0.03-0.04c0.26,0.32,0.52,0.63,0.78,0.95
		c2.15,2.61,4.31,5.23,6.46,7.84c-0.25,5.42-0.49,10.84-0.74,16.26c-12.84,0-25.69,0.01-38.53,0.01
		c5.25-7.08,10.2-14.41,15.89-21.11C178.4,320.39,182.22,319.5,185.23,317.92z"/>
	<path class="st10" d="M134.23,288.31c0.43,0.15,0.58,0.16,0.67,0.24c2.69,2.4,6.8,4.41,7.61,7.33c0.68,2.45-2.6,5.92-3.97,9.01
		c-5.14,11.59-5.18,23.28-0.5,35.03c0.43,1.07,0.79,2.15,1.44,3.93c-4.32,0-8.02,0.09-11.71-0.08c-0.68-0.03-1.61-0.98-1.92-1.72
		C118.61,324.82,120.32,304.29,134.23,288.31z"/>
	<path class="st0" d="M231.32,334.93c8.17-9.62,16.33-19.26,24.52-28.86c0.59-0.69,1.43-1.17,2.15-1.75
		c0.39,0.53,0.89,1.02,1.16,1.6c5.86,12.84,4.78,25.48-1.15,37.96c-6.72,0-13.45,0-20.17,0c0,0-0.3,0.09-0.3,0.09
		C235.46,340.95,233.39,337.94,231.32,334.93z"/>
	<path class="st10" d="M258,343.88c5.93-12.49,7.01-25.12,1.15-37.96c-0.27-0.59-0.77-1.07-1.16-1.6c-0.87-1.79-1.43-3.85-2.68-5.31
		c-1.8-2.1-1.52-3.45,0.55-4.93c1.3-0.93,2.53-1.98,3.7-3.08c2.34-2.2,4.5-2.79,6.47,0.4c4.09,6.78,7.66,13.74,8.95,21.71
		c1.52,9.39,1.1,18.6-1.78,27.68c-0.32,1.01-0.49,2.06-0.73,3.1C267.65,343.88,262.83,343.88,258,343.88z"/>
	<path class="st11" d="M199.74,327.63c-2.15-2.61-4.31-5.23-6.46-7.84c-0.26-0.32-0.52-0.63-0.78-0.95c0,0,0.03,0.04,0.03,0.04
		c-3.03-9.57-5.97-19.18-9.12-28.71c-6.9-20.89-13.91-41.74-20.87-62.61c0.58-0.23,1.16-0.45,1.73-0.68
		c11.42,17.27,22.84,34.55,34.66,52.43c9.07-13.56,17.55-26.26,26.04-38.96c1.37,1.95,2.73,3.91,4.1,5.86
		c-4.76,14.45-9.55,28.89-14.27,43.36c-3.18,9.75-6.24,19.55-9.35,29.32l0.03-0.04c-0.26,0.33-0.52,0.65-0.77,0.98
		C203.06,322.42,201.4,325.03,199.74,327.63z"/>
	<path class="st12" d="M224.97,240.35c-8.49,12.7-16.97,25.39-26.04,38.96c-11.82-17.88-23.24-35.16-34.66-52.43
		c17.8-3.6,35.61-7.21,52.49-10.63C219.61,224.59,222.29,232.47,224.97,240.35z"/>
	<path class="st8" d="M205.45,318.89c3.11-9.77,6.18-19.57,9.35-29.32c4.71-14.47,9.51-28.91,14.27-43.36
		c3.71,3.46,7.42,6.91,11.13,10.36c-2.61,0.95-5.22,1.9-8.67,3.16c4.75,4.33,9.04,8.25,13.3,12.13
		c-11.16,16.03-21.62,31.05-32.08,46.06C210.32,318.24,207.89,318.56,205.45,318.89z"/>
	<path class="st13" d="M253.21,237.17c3.38,2.98,6.76,5.96,11.01,9.7c-5.46,1.96-9.52,3.42-13.58,4.87
		C251.5,246.88,252.36,242.03,253.21,237.17z"/>
	<path class="st14" d="M205.45,318.89c2.43-0.32,4.86-0.64,7.3-0.96c4.64,0.66,8.08,3.07,10.76,6.91c2.44,3.48,5.2,6.74,7.81,10.1
		c2.07,3.01,4.14,6.02,6.21,9.04c-10.97-0.01-21.94-0.03-32.91-0.04c-1.88-0.01-3.75-0.02-5.63-0.03
		c0.25-5.42,0.49-10.84,0.74-16.26c1.66-2.6,3.32-5.2,4.98-7.81c0.26-0.33,0.52-0.65,0.77-0.98L205.45,318.89z"/>
	<path class="st8" d="M192.49,318.84c0.26,0.31,0.52,0.63,0.78,0.95C193.01,319.47,192.75,319.16,192.49,318.84z"/>
	<path class="st8" d="M205.49,318.85c-0.26,0.32-0.52,0.65-0.77,0.98C204.97,319.5,205.23,319.17,205.49,318.85z"/>
</g>
</svg>
