<?xml version="1.0" encoding="utf-8"?>
<!-- Generator: Adobe Illustrator 24.1.3, SVG Export Plug-In . SVG Version: 6.00 Build 0)  -->
<svg version="1.1" id="Layer_1" xmlns="http://www.w3.org/2000/svg" xmlns:xlink="http://www.w3.org/1999/xlink" x="0px" y="0px"
	 viewBox="0 0 396.85 396.85" style="enable-background:new 0 0 396.85 396.85;" xml:space="preserve">
<style type="text/css">
	.st0{fill:#272660;}
	.st1{fill:#A23B3E;}
	.st2{fill:#111232;}
	.st3{fill:#FDE5CE;}
	.st4{fill:#F3D2A6;}
	.st5{fill:#FCBF92;}
	.st6{fill:#FCC9A3;}
	.st7{fill:#531518;}
	.st8{fill:#66A7DB;}
	.st9{fill:#FBB784;}
	.st10{fill:#2B72AE;}
	.st11{fill:#E9E9E8;}
	.st12{fill:#FCC9A4;}
	.st13{fill:#64A6DA;}
	.st14{fill:#FBB684;}
</style>
<g>
	<path class="st0" d="M186.38,1190.56c0.74-0.51,1.58-0.67,2.44-0.82c0.91-0.16,1.82-0.34,2.74-0.51c0.04,0.13,0.06,0.27,0.14,0.37
		c0.86,1.2,1.74,2.4,2.59,3.6c0.17,0.24,0.38,0.37,0.65,0.32c0.31-0.05,0.62-0.14,0.93-0.22c0.23,0.26,0.47,0.51,0.67,0.79
		c0.19,0.26,0.52,0.44,0.45,0.85c-0.1,0.61-0.17,1.22-0.25,1.83c-0.19,1.34-0.38,2.68-0.57,4.02c-0.12,0.85-0.25,1.71-0.37,2.56
		c-2.58,0-5.16,0-7.74,0c0-1.72,0-3.44,0-5.16c0-0.38-0.2-0.63-0.51-0.64c-0.36-0.01-0.59,0.24-0.61,0.64c0,0.06,0,0.12,0,0.19
		c0,1.66,0,3.32,0,4.98c-0.89,0-1.79,0-2.68,0c-0.06-0.04-0.11-0.09-0.17-0.12c-0.49-0.25-0.74-0.64-0.74-1.19
		c0-2.17,0-4.34,0.01-6.51c0-0.79,0.21-1.54,0.54-2.26c0.21,0.16,0.41,0.32,0.62,0.48c0.6,0.44,1.31,0.38,1.81-0.17
		c0.25-0.28,0.48-0.57,0.7-0.87c0.42-0.58,0.33-1.3-0.2-1.78C186.68,1190.82,186.53,1190.69,186.38,1190.56z M191.55,1198.15
		c-0.47,0-0.94,0.01-1.41,0c-0.31-0.01-0.46,0.11-0.45,0.43c0.01,0.48,0.01,0.97,0,1.45c-0.01,0.32,0.14,0.44,0.45,0.43
		c0.94-0.01,1.88-0.01,2.82,0c0.31,0,0.46-0.11,0.45-0.43c-0.01-0.48-0.01-0.97,0-1.45c0.01-0.32-0.14-0.44-0.45-0.43
		C192.49,1198.16,192.02,1198.15,191.55,1198.15z"/>
	<path class="st0" d="M207.7,1203.37c-2.58,0-5.16,0-7.74,0c-0.2-1.35-0.4-2.7-0.59-4.06c-0.2-1.4-0.39-2.8-0.58-4.21
		c-0.03-0.25-0.04-0.47,0.17-0.68c0.33-0.34,0.63-0.73,0.94-1.1c0.19,0.06,0.38,0.1,0.56,0.17c0.43,0.16,0.76,0.06,1.03-0.31
		c0.32-0.44,0.66-0.87,0.95-1.32c0.22-0.35,0.44-0.5,0.9-0.41c1.38,0.27,2.76,0.56,4.03,1.21c1,0.51,1.66,1.27,1.87,2.39
		c0.07,0.36,0.1,0.73,0.11,1.1c0.01,2.41,0.01,4.81,0.01,7.22c-0.17,0-0.35,0-0.52,0c0-1.72,0-3.44,0-5.16
		c0-0.41-0.24-0.65-0.61-0.64c-0.31,0.01-0.51,0.26-0.51,0.64C207.7,1199.92,207.7,1201.65,207.7,1203.37z M204.16,1200.46
		c0.49,0,0.99-0.01,1.48,0c0.3,0,0.43-0.13,0.42-0.42c-0.01-0.51,0-1.01,0-1.52c0-0.24-0.13-0.36-0.37-0.36c-0.99,0-1.98,0-2.97,0
		c-0.26,0-0.39,0.12-0.38,0.39c0,0.51,0,1.01,0,1.52c0,0.28,0.13,0.41,0.41,0.4C203.22,1200.46,203.69,1200.46,204.16,1200.46z"/>
	<path class="st0" d="M209.34,1203.37c0-2.41,0-4.81-0.01-7.22c0-0.37-0.04-0.74-0.11-1.1c-0.21-1.12-0.87-1.88-1.87-2.39
		c-1.27-0.65-2.64-0.94-4.03-1.21c-0.45-0.09-0.68,0.06-0.9,0.41c-0.29,0.46-0.63,0.89-0.95,1.32c-0.27,0.37-0.6,0.47-1.03,0.31
		c-0.18-0.07-0.38-0.11-0.56-0.17c-0.36-0.17-0.72-0.34-1.07-0.52c-0.29-0.14-0.58-0.3-0.87-0.45c0.67-0.52,1.33-1.03,2-1.55
		c0.73-0.55,1.46-1.09,2.18-1.64c0.27-0.18,0.53-0.24,0.87-0.18c1.64,0.32,3.29,0.59,4.93,0.94c0.52,0.11,0.99,0.42,1.48,0.64
		c-0.12,0.1-0.25,0.2-0.37,0.3c-0.66,0.54-0.74,1.29-0.22,1.96c0.2,0.25,0.39,0.51,0.61,0.75c0.5,0.56,1.22,0.63,1.83,0.18
		c0.21-0.15,0.41-0.32,0.61-0.48c0.45,0.88,0.58,1.83,0.58,2.8c0.01,1.86-0.02,3.72,0.01,5.58c0.01,0.78-0.21,1.37-0.95,1.7
		C210.78,1203.37,210.06,1203.37,209.34,1203.37z"/>
	<path class="st1" d="M197.95,1192.35c0.29,0.15,0.58,0.3,0.87,0.45c0.36,0.18,0.72,0.35,1.07,0.52c-0.31,0.37-0.6,0.76-0.94,1.1
		c-0.21,0.21-0.2,0.44-0.17,0.68c0.19,1.4,0.38,2.81,0.58,4.21c0.19,1.35,0.39,2.7,0.59,4.06c-1.39,0-2.78,0-4.17,0
		c0.12-0.85,0.25-1.71,0.37-2.56c0.19-1.34,0.38-2.68,0.57-4.02c0.09-0.61,0.16-1.22,0.25-1.83c0.06-0.41-0.26-0.59-0.45-0.85
		c-0.2-0.28-0.45-0.53-0.67-0.79c0.19-0.1,0.38-0.21,0.58-0.3c0.45-0.22,0.91-0.44,1.37-0.67
		C197.86,1192.35,197.9,1192.35,197.95,1192.35z"/>
	<path class="st2" d="M186.94,1203.37c0-1.66,0-3.32,0-4.98c0-0.06,0-0.12,0-0.19c0.01-0.41,0.24-0.65,0.61-0.64
		c0.31,0.01,0.51,0.26,0.51,0.64c0,1.72,0,3.44,0,5.16C187.68,1203.37,187.31,1203.37,186.94,1203.37z"/>
	<path class="st2" d="M207.7,1203.37c0-1.72,0-3.44,0-5.16c0-0.38,0.2-0.63,0.51-0.64c0.36-0.01,0.6,0.23,0.61,0.64
		c0,1.72,0,3.44,0,5.16C208.45,1203.37,208.08,1203.37,207.7,1203.37z"/>
	<path class="st3" d="M197.95,1192.35c-0.05,0-0.09,0-0.14,0c-0.05-0.05-0.1-0.1-0.16-0.15c-1.31-0.99-2.63-1.98-3.94-2.98
		c0.84-0.71,0.78-1.68,0.74-2.63c-0.01-0.11-0.13-0.25-0.24-0.32c-1.63-1.03-2.6-2.49-2.94-4.38c-0.05-0.27-0.06-0.54-0.09-0.82
		c-0.26-0.04-0.5-0.06-0.74-0.12c-0.55-0.13-0.88-0.56-0.89-1.12c-0.01-0.45,0-0.89,0-1.34c-0.01-0.51,0.19-0.88,0.66-1.11
		c0.57,0.01,1.09,0.17,1.55,0.52c0.1,0.07,0.23,0.09,0.35,0.13c0.04-0.12,0.12-0.24,0.12-0.36c0.01-0.67,0.01-1.33,0.01-2
		c1.68,0.62,3.42,0.88,5.2,0.92c1.35,0.03,2.69-0.08,4.02-0.31c0,1.62,0,3.25,0,4.87c0,0.24-0.03,0.49-0.07,0.73
		c-0.39,2.36-1.76,3.94-3.91,4.89c-0.33,0.15-0.67,0.26-1.01,0.38c0.47,0.11,0.93,0.17,1.4,0.18c0.24,0.01,0.33,0.08,0.32,0.32
		c-0.02,0.4,0.02,0.8-0.01,1.19c-0.08,0.93,0.57,1.93,1.78,1.94C199.28,1191.32,198.62,1191.84,197.95,1192.35z"/>
	<path class="st2" d="M196.54,1165.34c1.75-0.23,3.45-0.03,5.12,0.51c1.87,0.59,3.55,1.52,4.9,2.94c0.43,0.45,0.79,0.98,1.08,1.54
		c0.44,0.83,0.29,1.62-0.42,2.25c-0.48,0.42-1.06,0.7-1.6,1.05c-0.02,0.02-0.05,0.03-0.07,0.05c-5.13,0-10.27,0-15.4,0
		c-0.01-0.02-0.02-0.05-0.02-0.07c0.03-0.11,0.08-0.23,0.08-0.34c0.01-0.5,0-0.99,0-1.49c0-0.8,0.29-1.17,1.07-1.36
		c0.72-0.17,1.43-0.37,2.16-0.49c0.96-0.17,1.92-0.34,2.88-0.39c1.01-0.05,2.03-0.03,3.04,0.07c1.27,0.12,2.53,0.35,3.79,0.54
		c0.44,0.07,0.87,0.18,1.3,0.27c0.02-0.04,0.05-0.07,0.07-0.11c-0.25-0.37-0.47-0.78-0.77-1.11c-1.37-1.56-3.09-2.6-5.05-3.25
		C198,1165.69,197.26,1165.53,196.54,1165.34z"/>
	<path class="st0" d="M196.54,1165.34c0.72,0.19,1.46,0.35,2.17,0.59c1.96,0.65,3.68,1.69,5.05,3.25c0.29,0.34,0.51,0.74,0.77,1.11
		c-0.02,0.04-0.05,0.07-0.07,0.11c-0.43-0.09-0.86-0.2-1.3-0.27c-1.26-0.2-2.52-0.42-3.79-0.54c-1.01-0.1-2.03-0.12-3.04-0.07
		c-0.97,0.05-1.93,0.22-2.88,0.39c-0.73,0.13-1.44,0.32-2.16,0.49c-0.78,0.19-1.07,0.57-1.07,1.36c0,0.5,0.01,0.99,0,1.49
		c0,0.12-0.05,0.23-0.08,0.34c-0.65-0.27-1.24-0.62-1.71-1.14c-0.53-0.57-0.66-1.22-0.38-1.96c0.33-0.84,0.89-1.51,1.55-2.1
		c1.85-1.65,4.03-2.62,6.47-3C196.22,1165.37,196.38,1165.36,196.54,1165.34z"/>
	<path class="st4" d="M199.95,1190.81c-1.21,0-1.85-1.01-1.78-1.94c0.03-0.39-0.01-0.79,0.01-1.19c0.01-0.24-0.07-0.32-0.32-0.32
		c-0.47-0.02-0.93-0.08-1.4-0.18c0.34-0.13,0.68-0.24,1.01-0.38c2.15-0.95,3.53-2.53,3.91-4.89c0.04-0.24,0.07-0.49,0.07-0.73
		c0.01-1.62,0-3.25,0-4.87c0.69-0.2,1.39-0.4,2.08-0.6c0,0.68,0,1.36,0.01,2.04c0,0.11,0.06,0.27,0.13,0.3
		c0.08,0.03,0.23-0.03,0.32-0.1c0.46-0.37,1-0.52,1.58-0.54c0.42,0.22,0.65,0.55,0.65,1.03c0,0.43,0,0.87,0,1.3
		c0,0.8-0.49,1.29-1.29,1.31c-0.1,0-0.2,0.01-0.29,0.02c-0.11,0.55-0.18,1.1-0.33,1.63c-0.42,1.52-1.33,2.69-2.66,3.53
		c-0.27,0.17-0.38,0.35-0.34,0.66c0.06,0.5,0.03,1.02,0.18,1.49c0.09,0.31,0.43,0.54,0.65,0.8
		C201.4,1189.71,200.67,1190.26,199.95,1190.81z"/>
	<path class="st0" d="M203.53,1175.68c-0.69,0.2-1.39,0.4-2.08,0.6c-1.33,0.23-2.67,0.34-4.02,0.31c-1.78-0.04-3.52-0.3-5.2-0.92
		c-0.8-0.39-1.61-0.78-2.02-1.65c0,0-0.02-0.01-0.02,0c-0.02-0.1-0.04-0.19-0.06-0.29c0-0.03,0.01-0.05,0.01-0.08
		c5.13,0,10.27,0,15.4,0c0,0.12,0,0.25,0.01,0.37c0,0-0.01,0-0.01,0c-0.3,0.34-0.55,0.73-0.9,1.01
		C204.32,1175.31,203.91,1175.48,203.53,1175.68z"/>
	<path class="st2" d="M193.71,1189.23c1.31,0.99,2.63,1.98,3.94,2.98c0.06,0.04,0.11,0.1,0.16,0.15c-0.46,0.22-0.91,0.44-1.37,0.67
		c-0.19,0.1-0.39,0.2-0.58,0.3c-0.31,0.07-0.61,0.17-0.93,0.22c-0.28,0.04-0.48-0.08-0.65-0.32c-0.86-1.21-1.73-2.4-2.59-3.6
		c-0.07-0.1-0.09-0.25-0.14-0.37c0.37-0.08,0.75-0.14,1.12-0.23C193.06,1188.91,193.4,1188.99,193.71,1189.23z"/>
	<path class="st1" d="M211.86,1193.28c-0.2,0.16-0.41,0.32-0.61,0.48c-0.61,0.45-1.33,0.38-1.83-0.18c-0.21-0.24-0.41-0.5-0.61-0.75
		c-0.52-0.67-0.44-1.42,0.22-1.96c0.12-0.1,0.25-0.2,0.37-0.3C210.53,1191.2,211.34,1192.11,211.86,1193.28z"/>
	<path class="st1" d="M186.38,1190.56c0.15,0.13,0.3,0.26,0.45,0.39c0.53,0.48,0.61,1.2,0.2,1.78c-0.22,0.3-0.45,0.59-0.7,0.87
		c-0.49,0.55-1.21,0.61-1.81,0.17c-0.21-0.15-0.41-0.32-0.62-0.48C184.43,1192.11,185.24,1191.19,186.38,1190.56z"/>
	<path class="st1" d="M190.21,1174.03c0.41,0.87,1.22,1.26,2.02,1.65c0,0.67,0,1.33-0.01,2c0,0.12-0.08,0.24-0.12,0.36
		c-0.12-0.04-0.26-0.06-0.35-0.13c-0.46-0.35-0.98-0.5-1.55-0.52C190.2,1176.27,190.21,1175.15,190.21,1174.03z"/>
	<path class="st1" d="M203.53,1175.68c0.38-0.21,0.79-0.37,1.12-0.64c0.34-0.28,0.6-0.67,0.9-1.01c0.01,1.12,0.01,2.24,0.02,3.35
		c-0.58,0.02-1.12,0.16-1.58,0.54c-0.08,0.07-0.24,0.13-0.32,0.1c-0.08-0.03-0.13-0.2-0.13-0.3
		C203.53,1177.04,203.53,1176.36,203.53,1175.68z"/>
	<path class="st4" d="M205.56,1174.04c0-0.12,0-0.25-0.01-0.37c0.02-0.02,0.05-0.03,0.07-0.05
		C205.6,1173.76,205.58,1173.9,205.56,1174.04z"/>
	<path class="st3" d="M190.14,1173.74c0.02,0.1,0.04,0.19,0.06,0.29C190.18,1173.93,190.16,1173.84,190.14,1173.74z"/>
	<path class="st2" d="M191.55,1198.15c0.47,0,0.94,0.01,1.41,0c0.31-0.01,0.46,0.11,0.45,0.43c-0.01,0.48-0.01,0.97,0,1.45
		c0.01,0.32-0.15,0.44-0.45,0.43c-0.94-0.01-1.88-0.01-2.82,0c-0.31,0-0.46-0.11-0.45-0.43c0.01-0.48,0.01-0.97,0-1.45
		c-0.01-0.32,0.15-0.44,0.45-0.43C190.61,1198.16,191.08,1198.15,191.55,1198.15z"/>
	<path class="st2" d="M204.16,1200.46c-0.47,0-0.94,0-1.41,0c-0.28,0-0.41-0.12-0.41-0.4c0-0.51,0-1.01,0-1.52
		c0-0.26,0.12-0.39,0.38-0.39c0.99,0,1.98,0,2.97,0c0.24,0,0.37,0.12,0.37,0.36c0,0.51-0.01,1.01,0,1.52c0,0.3-0.13,0.43-0.42,0.42
		C205.15,1200.46,204.66,1200.46,204.16,1200.46z"/>
</g>
<g>
	<path class="st0" d="M857.3,1106.41c-2.43,0-4.87,0.03-7.3,0c-1.68-0.02-2.8-1.7-2.31-3.31c0.31-1.03,0.57-2.07,0.78-3.13
		c0.59-2.97,1.12-5.95,1.73-8.92c0.41-1.98,2.16-3.36,4.18-3.38c0.95-0.01,1.89,0.01,2.84,0.01c-0.34,0.27-0.67,0.55-1.01,0.81
		c-0.56,0.43-1.13,0.86-1.73,1.32c0.16,0.12,0.26,0.21,0.37,0.28c0.94,0.56,1.87,1.13,2.82,1.67c0.32,0.18,0.33,0.33,0.08,0.57
		c-0.3,0.28-0.56,0.58-0.87,0.85c-0.23,0.21-0.21,0.39-0.05,0.62c1.09,1.55,2.18,3.11,3.27,4.67c-0.34,0.18-0.76,0.27-0.99,0.54
		c-0.64,0.75-1.19,1.57-1.77,2.36C857.32,1103.05,857.31,1104.73,857.3,1106.41z M854.4,1095.17c-1.55,1.78-1.74,4.07-0.93,5.99
		c0.03,0.08,0.14,0.19,0.21,0.19c0.41,0.02,0.82,0.01,1.31,0.01c-0.07-0.2-0.11-0.32-0.16-0.44c-0.52-1.31-0.52-2.61,0.06-3.91
		c0.15-0.34,0.52-0.73,0.44-1.01c-0.09-0.33-0.55-0.55-0.85-0.82C854.47,1095.19,854.45,1095.19,854.4,1095.17z"/>
	<path class="st5" d="M864.78,1076.15c0,0.48-0.04,0.97,0.03,1.44c0.19,1.28,0,2.5-0.52,3.67c-0.54,1.22-1.47,2.09-2.57,2.8h-0.82
		c-0.72-0.21-1.43-0.41-2.15-0.62c-0.88-0.52-1.69-1.12-2.3-1.96c-0.67-0.9-1.12-1.89-1.24-3.03c-0.01-0.05-0.05-0.1-0.08-0.15
		c0-1.44,0.01-2.88,0.01-4.32c0.08-0.04,0.17-0.08,0.26-0.12c0.1,0.04,0.21,0.12,0.31,0.11c1.18-0.14,2.33-0.42,3.37-1.03
		c1.67-0.96,3.33-1.93,5-2.91c0.3-0.18,0.41-0.08,0.43,0.22c0.03,0.81,0.05,1.62,0.09,2.42c0.02,0.44,0.06,0.87,0.09,1.3
		c0.52-0.02,0.94,0.16,1.16,0.65c0.19,0.41,0.15,0.83-0.17,1.12C865.44,1075.95,865.08,1076.02,864.78,1076.15z"/>
	<path class="st1" d="M855.4,1073.86c-0.09,0.04-0.17,0.08-0.26,0.12c-0.48,0.03-0.96,0.05-1.44,0.08c0.03-1.41-0.13-2.82,0.26-4.21
		c0.87-3.12,3.9-5.38,7.04-5.24c0.58,0.5,1.15,1,1.74,1.5c0.1,0.08,0.22,0.14,0.33,0.2c0,0.84,0,1.67,0.01,2.51
		c0,0.16,0.05,0.31,0.08,0.47c-1.38,0.81-2.76,1.62-4.14,2.43C857.81,1072.43,856.61,1073.14,855.4,1073.86z"/>
	<path class="st0" d="M875.2,1102.18c0.09,0.24,0.18,0.47,0.27,0.71c0.69,1.64-0.44,3.5-2.2,3.52c-2.44,0.04-4.88,0-7.32,0
		c0-1.68,0-3.36,0.01-5.04c0.75,0,1.5,0,2.25,0c0.54,0,1.08,0,1.61,0c1.09,0,2.18-0.02,3.27,0.01c0.35,0.01,0.71,0.09,1.03,0.22
		C874.51,1101.74,874.85,1101.98,875.2,1102.18z"/>
	<path class="st0" d="M860.9,1084.05c0.27,0,0.55,0,0.82,0c0.3,0,0.6,0,0.9,0c0.62,0.01,1.25,0.01,1.87,0.02
		c0.12,0.03,0.25,0.07,0.37,0.1c0.11,0.14,0.2,0.32,0.34,0.42c1.25,0.87,2.07,2.03,2.37,3.54c0.03,0.45,0.07,0.89,0.1,1.34
		c-0.1,0.54-0.19,1.08-0.29,1.63c-0.08,0.14-0.19,0.27-0.24,0.42c-0.15,0.42-0.39,0.48-0.73,0.22c-0.06-0.04-0.13-0.07-0.2-0.1
		c-0.41-0.39-0.83-0.77-1.24-1.16c-0.15-0.22-0.31-0.44-0.46-0.65c-0.3-0.88-0.6-1.76-0.92-2.69c-1.88,0.38-3.87,0.78-5.86,1.19
		c-0.06,0.03-0.13,0.05-0.19,0.08c-0.09-0.08-0.22-0.15-0.25-0.26c-0.04-0.15-0.01-0.32-0.02-0.48c0-1.18,0-2.35,0-3.61
		c0.51,0,0.98,0,1.45,0C859.46,1084.05,860.18,1084.05,860.9,1084.05z"/>
	<path class="st5" d="M868.11,1073.98v4.32c-0.16,1.06-0.51,2.05-1.11,2.94c-0.57,0.84-1.3,1.51-2.19,2.01
		c-0.12,0.07-0.21,0.19-0.31,0.28c-0.63,0.18-1.25,0.35-1.88,0.53h-0.9c1.1-0.71,2.03-1.58,2.57-2.8c0.52-1.17,0.71-2.39,0.52-3.67
		c-0.07-0.47-0.03-0.96-0.03-1.44c0.3-0.13,0.66-0.2,0.9-0.41c0.32-0.29,0.36-0.71,0.17-1.12c-0.22-0.49-0.64-0.67-1.16-0.65
		c-0.03-0.43-0.07-0.86-0.09-1.3c-0.04-0.8-0.06-1.61-0.09-2.42c-0.02-0.3-0.13-0.4-0.43-0.22c-1.67,0.98-3.33,1.95-5,2.91
		c-1.04,0.61-2.19,0.89-3.37,1.03c-0.1,0.01-0.21-0.07-0.31-0.11c1.2-0.71,2.41-1.43,3.62-2.14c1.38-0.81,2.76-1.62,4.13-2.43
		c0.64-0.31,0.63-0.31,1.13,0.25c0.06,0.08,0.15,0.14,0.22,0.21C865.71,1071.16,866.91,1072.57,868.11,1073.98z"/>
	<path class="st0" d="M866.23,1091.63c0.07,0.03,0.14,0.06,0.2,0.1c0.35,0.25,0.58,0.2,0.73-0.22c0.05-0.15,0.16-0.28,0.24-0.42
		c0.45-0.16,0.91-0.33,1.52-0.54c-0.47-0.42-0.85-0.75-1.23-1.08c-0.03-0.45-0.07-0.89-0.1-1.34c0.45,0.15,0.9,0.31,1.35,0.44
		c0.89,0.27,1.79,0.19,2.69,0.09c0.34,0.42,0.67,0.84,1.01,1.26c-0.09,0.09-0.21,0.16-0.27,0.26c-0.69,1.22-1.36,2.46-2.07,3.66
		c-0.35,0.58-0.79,1.11-1.18,1.67c-0.22-0.36-0.46-0.29-0.72-0.04c-0.13,0.12-0.27,0.24-0.41,0.34c-0.23,0.17-0.26,0.32-0.06,0.55
		c0.14,0.16,0.2,0.39,0.3,0.59c-0.08,0.06-0.17,0.12-0.24,0.2c-0.91,1.07-1.82,2.15-2.74,3.22c-0.29-0.37-0.6-0.74-0.87-1.13
		c-0.3-0.43-0.68-0.7-1.2-0.77c1.17-1.68,2.33-3.35,3.58-5.14c-0.48-0.43-0.95-0.87-1.48-1.35
		C865.64,1091.84,865.93,1091.74,866.23,1091.63z"/>
	<path class="st0" d="M869.11,1095.51c0.4-0.55,0.84-1.08,1.18-1.67c0.72-1.21,1.38-2.44,2.07-3.66c0.06-0.1,0.18-0.18,0.27-0.26
		c0.49,0.72,0.55,1.56,0.7,2.38c0.59,3.07,1.17,6.15,1.75,9.22c0.04,0.22,0.07,0.44,0.11,0.66c-0.36-0.2-0.7-0.43-1.07-0.58
		c-0.32-0.13-0.69-0.21-1.03-0.22c-1.09-0.03-2.18-0.01-3.27-0.01c0.03-0.12,0.05-0.23,0.08-0.35c0.32-1.01,0.37-2.04,0.2-3.09
		C869.96,1097.05,869.56,1096.27,869.11,1095.51z"/>
	<path class="st1" d="M868.12,1073.98c-1.2-1.41-2.41-2.82-3.61-4.23c0-1.6,0.01-3.21,0.01-4.81c0.46,0.19,0.93,0.39,1.39,0.58
		c0.13,0.05,0.27,0.1,0.4,0.15c0.08,0.09,0.15,0.19,0.24,0.26c1.95,1.44,2.96,3.37,3.01,5.8c0,0.78-0.01,1.55-0.01,2.33
		C869.07,1074.03,868.59,1074.01,868.12,1073.98z"/>
	<path class="st6" d="M857.3,1106.41c0.01-1.68,0.02-3.36,0.03-5.04c1.43,0,2.87,0,4.3,0c0.21,0,0.42,0,0.63,0
		c0.05,0.07,0.08,0.16,0.15,0.2c0.5,0.37,0.7,0.86,0.67,1.48c-0.03,0.58-0.03,1.17,0,1.75c0.03,0.58-0.22,1-0.63,1.37
		c-0.07,0.06-0.13,0.15-0.19,0.23C860.61,1106.41,858.95,1106.41,857.3,1106.41z"/>
	<path class="st7" d="M869.56,1071.73c-0.05-2.43-1.06-4.36-3.01-5.8c-0.09-0.07-0.16-0.17-0.24-0.26c0.92-0.99,2.42-1.34,3.76-0.86
		c1.33,0.48,2.29,1.76,2.37,3.16c0.08,1.48-0.7,2.83-2.03,3.47C870.14,1071.57,869.85,1071.64,869.56,1071.73z"/>
	<path class="st8" d="M857.3,1087.66c0,0.16-0.03,0.33,0.02,0.48c0.03,0.1,0.16,0.17,0.25,0.26c0.78,2.33,1.56,4.65,2.33,6.99
		c0.35,1.06,0.68,2.14,1.02,3.2c-0.27-0.04-0.54-0.07-0.81-0.11c-1.09-1.56-2.18-3.11-3.27-4.67c-0.16-0.23-0.19-0.41,0.05-0.62
		c0.3-0.27,0.57-0.58,0.87-0.85c0.26-0.24,0.25-0.39-0.08-0.57c-0.95-0.54-1.88-1.11-2.82-1.67c-0.11-0.07-0.21-0.16-0.37-0.28
		c0.6-0.46,1.17-0.88,1.73-1.32c0.34-0.26,0.67-0.54,1.01-0.81C857.24,1087.68,857.27,1087.67,857.3,1087.66z"/>
	<path class="st0" d="M871.62,1088.66c-0.9,0.1-1.81,0.17-2.69-0.09c-0.45-0.14-0.9-0.3-1.35-0.44c-0.3-1.51-1.12-2.66-2.37-3.54
		c-0.14-0.1-0.23-0.28-0.34-0.42c2.88-0.57,5.75,1.08,6.69,3.86C871.63,1088.23,871.61,1088.45,871.62,1088.66z"/>
	<path class="st5" d="M862.26,1106.41c0.06-0.08,0.11-0.17,0.19-0.23c0.41-0.37,0.65-0.79,0.63-1.37c-0.03-0.58-0.03-1.17,0-1.75
		c0.03-0.62-0.17-1.11-0.67-1.48c-0.06-0.05-0.1-0.14-0.15-0.2c1.22,0,2.45,0,3.67,0l0.03-0.01c0,1.68,0,3.36-0.01,5.04
		C864.72,1106.41,863.49,1106.41,862.26,1106.41z"/>
	<path class="st9" d="M868.12,1073.98c0.48,0.03,0.96,0.05,1.44,0.08c0.86,0.43,1.44,1.06,1.44,2.08c0.01,1.16-0.95,2.14-2.12,2.16
		c-0.25,0.01-0.51,0-0.76,0C868.12,1076.86,868.12,1075.42,868.12,1073.98z"/>
	<path class="st9" d="M853.7,1074.06c0.48-0.03,0.96-0.05,1.44-0.08c0,1.44,0,2.88,0,4.31c-0.79,0.03-1.55,0.03-2.18-0.58
		c-1.08-1.05-0.9-2.69,0.4-3.46C853.47,1074.19,853.59,1074.12,853.7,1074.06z"/>
	<path class="st7" d="M864.52,1064.94c0,1.6-0.01,3.21-0.01,4.81c-0.08-0.07-0.16-0.14-0.23-0.21c-0.49-0.56-0.49-0.56-1.12-0.25
		c-0.03-0.16-0.08-0.31-0.08-0.47c-0.01-0.84-0.01-1.67-0.01-2.51c0-0.56,0-1.13,0-1.69
		C863.55,1064.73,864.03,1064.83,864.52,1064.94z"/>
	<path class="st7" d="M863.07,1064.62c0,0.56,0,1.13,0,1.69c-0.11-0.07-0.23-0.12-0.33-0.2c-0.58-0.49-1.16-1-1.74-1.5
		C861.69,1064.62,862.38,1064.62,863.07,1064.62z"/>
	<path class="st9" d="M860.9,1084.05c-0.72,0-1.44,0-2.16,0c0-0.2,0.01-0.41,0.01-0.61C859.47,1083.64,860.18,1083.85,860.9,1084.05
		z"/>
	<path class="st9" d="M862.62,1084.05c0.63-0.17,1.25-0.35,1.88-0.52c0,0.18,0,0.36,0,0.54
		C863.87,1084.06,863.25,1084.06,862.62,1084.05z"/>
	<path class="st5" d="M860.09,1098.47c0.27,0.04,0.54,0.07,0.81,0.11c0,0,0,0,0,0c0.03,0.04,0.06,0.07,0.09,0.11
		c0.24,0.29,0.48,0.58,0.72,0.87c-0.03,0.6-0.06,1.21-0.08,1.81c-1.43,0-2.87,0-4.3,0c0.59-0.79,1.14-1.61,1.77-2.36
		C859.33,1098.75,859.76,1098.65,860.09,1098.47z"/>
	<path class="st10" d="M854.4,1095.17c0.05,0.02,0.06,0.02,0.07,0.03c0.3,0.27,0.76,0.49,0.85,0.82c0.08,0.27-0.29,0.66-0.44,1.01
		c-0.57,1.29-0.58,2.6-0.06,3.91c0.05,0.12,0.09,0.24,0.16,0.44c-0.48,0-0.89,0.01-1.31-0.01c-0.08,0-0.18-0.11-0.21-0.19
		C852.66,1099.24,852.85,1096.95,854.4,1095.17z"/>
	<path class="st0" d="M865.23,1100.37c0.91-1.07,1.82-2.15,2.74-3.22c0.07-0.08,0.16-0.13,0.24-0.2c0.04,0.06,0.1,0.11,0.13,0.18
		c0.65,1.43,0.53,2.84-0.13,4.24c-0.75,0-1.5,0-2.25,0l-0.03,0.01C865.7,1101.04,865.47,1100.71,865.23,1100.37z"/>
	<path class="st10" d="M868.21,1101.37c0.66-1.39,0.78-2.8,0.13-4.24c-0.03-0.07-0.09-0.12-0.13-0.18c-0.1-0.2-0.16-0.43-0.3-0.59
		c-0.2-0.23-0.17-0.38,0.06-0.55c0.14-0.1,0.28-0.22,0.41-0.34c0.26-0.25,0.5-0.31,0.72,0.04c0.46,0.76,0.85,1.53,1,2.42
		c0.17,1.05,0.12,2.07-0.2,3.09c-0.04,0.11-0.05,0.23-0.08,0.35C869.29,1101.37,868.75,1101.37,868.21,1101.37z"/>
	<path class="st11" d="M861.71,1099.56c-0.24-0.29-0.48-0.58-0.72-0.87c-0.03-0.04-0.06-0.07-0.09-0.11c0,0,0,0,0,0
		c-0.34-1.07-0.67-2.14-1.02-3.2c-0.77-2.33-1.55-4.66-2.33-6.99c0.06-0.03,0.13-0.05,0.19-0.08c1.27,1.93,2.55,3.85,3.87,5.85
		c1.01-1.51,1.96-2.93,2.91-4.35c0.15,0.22,0.31,0.44,0.46,0.65c-0.53,1.61-1.07,3.22-1.59,4.84c-0.35,1.09-0.7,2.18-1.04,3.27l0,0
		c-0.03,0.04-0.06,0.07-0.09,0.11C862.08,1098.98,861.9,1099.27,861.71,1099.56z"/>
	<path class="st12" d="M864.53,1089.82c-0.95,1.42-1.89,2.83-2.91,4.35c-1.32-2-2.59-3.92-3.87-5.85c1.99-0.4,3.97-0.8,5.86-1.19
		C863.93,1088.06,864.23,1088.94,864.53,1089.82z"/>
	<path class="st8" d="M862.35,1098.58c0.35-1.09,0.69-2.18,1.04-3.27c0.53-1.61,1.06-3.22,1.59-4.84c0.41,0.39,0.83,0.77,1.24,1.16
		c-0.29,0.11-0.58,0.21-0.97,0.35c0.53,0.48,1.01,0.92,1.48,1.35c-1.25,1.79-2.41,3.46-3.58,5.14
		C862.89,1098.51,862.62,1098.55,862.35,1098.58z"/>
	<path class="st13" d="M867.68,1089.46c0.38,0.33,0.75,0.66,1.23,1.08c-0.61,0.22-1.06,0.38-1.52,0.54
		C867.49,1090.55,867.58,1090.01,867.68,1089.46z"/>
	<path class="st14" d="M862.35,1098.58c0.27-0.04,0.54-0.07,0.81-0.11c0.52,0.07,0.9,0.34,1.2,0.77c0.27,0.39,0.58,0.75,0.87,1.13
		c0.23,0.34,0.46,0.67,0.69,1.01c-1.22,0-2.45,0-3.67,0c-0.21,0-0.42,0-0.63,0c0.03-0.6,0.06-1.21,0.08-1.81
		c0.19-0.29,0.37-0.58,0.56-0.87C862.29,1098.65,862.32,1098.61,862.35,1098.58L862.35,1098.58z"/>
	<path class="st8" d="M860.9,1098.58c0.03,0.04,0.06,0.07,0.09,0.11C860.96,1098.65,860.93,1098.61,860.9,1098.58z"/>
	<path class="st8" d="M862.35,1098.58c-0.03,0.04-0.06,0.07-0.09,0.11C862.29,1098.65,862.32,1098.61,862.35,1098.58z"/>
</g>
<g>
	<path class="st0" d="M100.37,248.96c6.03-4.15,13.01-5.47,20.03-6.71c7.5-1.32,14.97-2.78,22.45-4.17
		c0.37,1.03,0.52,2.21,1.13,3.06c7.07,9.88,14.25,19.68,21.28,29.58c1.41,1.99,3.09,3,5.38,2.64c2.56-0.41,5.07-1.17,7.61-1.78
		c1.85,2.15,3.85,4.2,5.51,6.48c1.54,2.11,4.23,3.61,3.7,6.94c-0.79,4.99-1.38,10.01-2.08,15.02c-1.54,11.01-3.09,22.02-4.66,33.02
		c-1,7-2.03,14-3.05,21c-21.18,0-42.36,0-63.53,0c0-14.13,0.01-28.25,0.01-42.38c0-3.14-1.66-5.19-4.19-5.27
		c-2.97-0.09-4.88,1.93-4.98,5.27c-0.01,0.51,0,1.02,0,1.52c0,13.62,0,27.24,0,40.85c-7.33,0-14.66,0-21.99,0
		c-0.47-0.34-0.91-0.75-1.42-1.01c-4-2.04-6.08-5.28-6.08-9.78c0.02-17.8,0-35.61,0.11-53.41c0.04-6.49,1.72-12.65,4.46-18.52
		c1.69,1.3,3.35,2.64,5.06,3.9c4.89,3.61,10.76,3.12,14.82-1.38c2.04-2.26,3.96-4.65,5.74-7.12c3.42-4.72,2.7-10.67-1.62-14.58
		C102.84,251.05,101.59,250.02,100.37,248.96z M142.84,311.27c-3.86,0-7.72,0.07-11.58-0.02c-2.53-0.06-3.78,0.9-3.73,3.55
		c0.08,3.96,0.08,7.92,0,11.88c-0.06,2.64,1.18,3.59,3.72,3.56c7.72-0.07,15.44-0.07,23.15,0c2.53,0.02,3.78-0.9,3.73-3.55
		c-0.08-3.96-0.08-7.92,0-11.88c0.06-2.65-1.18-3.62-3.72-3.56C150.56,311.33,146.7,311.27,142.84,311.27z"/>
	<path class="st0" d="M275.4,354.04c-21.18,0-42.36,0-63.53,0c-1.62-11.1-3.27-22.19-4.86-33.3c-1.64-11.5-3.22-23.02-4.79-34.53
		c-0.28-2.03-0.31-3.86,1.39-5.61c2.75-2.83,5.14-6,7.68-9.03c1.54,0.46,3.11,0.85,4.62,1.39c3.53,1.27,6.23,0.52,8.48-2.55
		c2.64-3.6,5.41-7.11,7.78-10.87c1.83-2.89,3.65-4.1,7.38-3.36c11.36,2.24,22.62,4.63,33.05,9.97c8.18,4.19,13.64,10.43,15.32,19.58
		c0.55,2.97,0.86,6.03,0.87,9.05c0.08,19.75,0.04,39.5,0.04,59.25c-1.43,0-2.85,0-4.28,0c0-14.13,0.02-28.25-0.01-42.38
		c-0.01-3.34-1.99-5.36-4.97-5.27c-2.53,0.08-4.19,2.13-4.19,5.27C275.39,325.78,275.4,339.91,275.4,354.04z M246.32,330.21
		c4.06,0,8.12-0.05,12.19,0.02c2.45,0.04,3.51-1.05,3.48-3.49c-0.06-4.16-0.01-8.33-0.02-12.49c0-2-1.04-2.98-3.02-2.98
		c-8.12,0-16.25,0.01-24.37-0.01c-2.14,0-3.17,1.02-3.16,3.17c0.02,4.16,0.03,8.33-0.01,12.49c-0.02,2.3,1.06,3.33,3.34,3.3
		C238.6,330.18,242.46,330.21,246.32,330.21z"/>
	<path class="st0" d="M288.84,354.04c0-19.75,0.03-39.5-0.04-59.25c-0.01-3.02-0.32-6.08-0.87-9.05
		c-1.68-9.16-7.15-15.39-15.32-19.58c-10.43-5.34-21.68-7.73-33.05-9.97c-3.73-0.74-5.55,0.47-7.38,3.36
		c-2.38,3.76-5.15,7.28-7.78,10.87c-2.25,3.07-4.95,3.83-8.48,2.55c-1.51-0.55-3.08-0.93-4.63-1.39c-2.94-1.43-5.89-2.83-8.82-4.28
		c-2.39-1.19-4.75-2.44-7.13-3.66c5.46-4.23,10.93-8.46,16.39-12.69c5.97-4.48,11.95-8.96,17.92-13.45
		c2.18-1.44,4.37-1.98,7.12-1.44c13.47,2.64,27.03,4.81,40.45,7.68c4.23,0.9,8.11,3.43,12.14,5.22c-1.02,0.83-2.05,1.65-3.07,2.49
		c-5.4,4.45-6.11,10.59-1.83,16.09c1.62,2.08,3.23,4.18,4.98,6.15c4.11,4.63,10.03,5.2,15.01,1.5c1.71-1.27,3.37-2.6,5.05-3.91
		c3.67,7.24,4.74,15.03,4.77,23.01c0.06,15.26-0.13,30.52,0.09,45.77c0.09,6.37-1.7,11.27-7.8,13.98
		C300.65,354.04,294.75,354.04,288.84,354.04z"/>
	<path class="st1" d="M195.34,263.63c2.37,1.22,4.73,2.47,7.13,3.66c2.93,1.45,5.88,2.86,8.82,4.28c-2.54,3.03-4.93,6.2-7.68,9.03
		c-1.7,1.75-1.67,3.58-1.39,5.61c1.58,11.51,3.16,23.02,4.79,34.53c1.58,11.1,3.23,22.2,4.86,33.3c-11.4,0-22.81,0-34.21,0
		c1.02-7,2.05-14,3.05-21c1.57-11,3.12-22.01,4.66-33.02c0.7-5,1.29-10.03,2.08-15.02c0.53-3.33-2.16-4.83-3.7-6.94
		c-1.67-2.28-3.66-4.33-5.51-6.48c1.58-0.83,3.14-1.69,4.74-2.48c3.73-1.84,7.47-3.65,11.21-5.47
		C194.57,263.63,194.96,263.63,195.34,263.63z"/>
	<path class="st2" d="M104.96,354.04c0-13.62,0-27.24,0-40.85c0-0.51-0.01-1.02,0-1.52c0.1-3.34,2.01-5.36,4.98-5.27
		c2.53,0.08,4.19,2.13,4.19,5.27c0.01,14.13,0,28.25-0.01,42.38C111.07,354.04,108.01,354.04,104.96,354.04z"/>
	<path class="st2" d="M275.4,354.04c0-14.13-0.01-28.25-0.01-42.38c0-3.14,1.66-5.19,4.19-5.27c2.97-0.09,4.96,1.93,4.97,5.27
		c0.03,14.13,0.01,28.25,0.01,42.38C281.51,354.04,278.45,354.04,275.4,354.04z"/>
	<path class="st3" d="M195.34,263.63c-0.38,0-0.77-0.01-1.15-0.01c-0.44-0.41-0.85-0.85-1.32-1.21
		c-10.78-8.15-21.56-16.28-32.34-24.42c6.93-5.81,6.43-13.75,6.05-21.59c-0.04-0.92-1.09-2.07-1.98-2.63
		c-13.35-8.43-21.35-20.44-24.12-35.94c-0.39-2.18-0.51-4.4-0.76-6.71c-2.12-0.34-4.12-0.53-6.05-0.98
		c-4.51-1.07-7.26-4.58-7.32-9.22c-0.04-3.66,0.02-7.32-0.02-10.98c-0.04-4.14,1.6-7.25,5.4-9.09c4.67,0.11,8.94,1.36,12.71,4.24
		c0.79,0.6,1.93,0.75,2.9,1.1c0.34-0.99,0.95-1.97,0.97-2.97c0.11-5.46,0.07-10.93,0.09-16.4c13.76,5.08,28.03,7.22,42.65,7.54
		c11.11,0.25,22.1-0.68,33.03-2.58c0,13.33,0.03,26.66-0.01,39.98c-0.01,2.01-0.23,4.04-0.56,6.03
		c-3.17,19.4-14.45,32.35-32.1,40.16c-2.69,1.19-5.5,2.1-8.26,3.15c3.86,0.89,7.67,1.39,11.49,1.52c2.01,0.07,2.67,0.69,2.59,2.66
		c-0.13,3.25,0.19,6.53-0.08,9.76c-0.64,7.6,4.66,15.87,14.58,15.89C206.27,255.18,200.8,259.41,195.34,263.63z"/>
	<path class="st2" d="M183.79,41.95c14.33-1.91,28.31-0.21,42.02,4.15c15.32,4.87,29.1,12.44,40.24,24.15
		c3.51,3.69,6.51,8.08,8.87,12.61c3.57,6.85,2.41,13.33-3.45,18.44c-3.91,3.41-8.73,5.77-13.15,8.59c-0.2,0.13-0.4,0.26-0.6,0.4
		c-42.13-0.01-84.26-0.01-126.39-0.02c-0.09-0.18-0.14-0.37-0.15-0.58c0.22-0.94,0.62-1.88,0.64-2.82c0.07-4.07,0.02-8.13,0.02-12.2
		c0-6.56,2.36-9.63,8.79-11.2c5.88-1.43,11.75-3.01,17.71-4.05c7.85-1.36,15.75-2.78,23.67-3.2c8.28-0.45,16.67-0.23,24.92,0.58
		c10.43,1.02,20.77,2.86,31.14,4.47c3.59,0.56,7.12,1.46,10.68,2.2c0.2-0.3,0.4-0.6,0.59-0.9c-2.08-3.06-3.88-6.37-6.3-9.13
		c-11.25-12.84-25.38-21.37-41.47-26.68C195.75,44.83,189.72,43.54,183.79,41.95z"/>
	<path class="st0" d="M183.79,41.95c5.93,1.58,11.96,2.88,17.78,4.81c16.09,5.32,30.22,13.85,41.47,26.68
		c2.42,2.76,4.21,6.07,6.3,9.13c-0.2,0.3-0.4,0.6-0.59,0.9c-3.56-0.74-7.1-1.65-10.68-2.2c-10.36-1.6-20.71-3.45-31.14-4.47
		c-8.25-0.8-16.64-1.02-24.92-0.58c-7.93,0.43-15.83,1.84-23.67,3.2c-5.96,1.03-11.82,2.61-17.71,4.05
		c-6.43,1.57-8.78,4.64-8.79,11.2c0,4.07,0.05,8.14-0.02,12.2c-0.02,0.94-0.41,1.88-0.64,2.82c-5.31-2.2-10.14-5.11-14.07-9.38
		c-4.33-4.71-5.41-10.05-3.08-16.06c2.67-6.92,7.34-12.4,12.76-17.23c15.2-13.54,33.06-21.46,53.1-24.6
		C181.18,42.23,182.48,42.11,183.79,41.95z"/>
	<path class="st4" d="M211.73,250.95c-9.92-0.02-15.22-8.29-14.58-15.89c0.27-3.23-0.05-6.51,0.08-9.76
		c0.08-1.98-0.59-2.59-2.59-2.66c-3.82-0.13-7.63-0.63-11.49-1.52c2.76-1.04,5.57-1.96,8.26-3.15c17.65-7.81,28.94-20.76,32.1-40.16
		c0.32-1.99,0.55-4.02,0.56-6.03c0.04-13.33,0.02-26.66,0.01-39.98c5.68-1.65,11.37-3.3,17.05-4.95c0.01,5.57-0.02,11.15,0.09,16.72
		c0.02,0.88,0.46,2.22,1.08,2.49c0.64,0.28,1.92-0.25,2.61-0.81c3.8-3.07,8.2-4.26,12.97-4.41c3.42,1.79,5.34,4.53,5.34,8.48
		c0,3.56,0.02,7.12,0,10.69c-0.04,6.56-4.01,10.57-10.61,10.74c-0.8,0.02-1.6,0.09-2.4,0.14c-0.89,4.55-1.49,9.07-2.69,13.41
		c-3.46,12.49-10.94,22.1-21.87,28.97c-2.21,1.39-3.11,2.88-2.8,5.4c0.49,4.1,0.27,8.39,1.46,12.26c0.77,2.51,3.5,4.41,5.35,6.59
		C223.68,241.98,217.7,246.47,211.73,250.95z"/>
	<path class="st0" d="M241.13,126.85c-5.68,1.65-11.37,3.3-17.05,4.95c-10.93,1.9-21.92,2.83-33.03,2.58
		c-14.62-0.33-28.88-2.46-42.65-7.54c-6.58-3.21-13.21-6.37-16.58-13.52c0,0-0.13-0.04-0.13-0.04c-0.16-0.79-0.31-1.57-0.47-2.36
		c0.03-0.21,0.06-0.42,0.09-0.63c42.13,0.01,84.26,0.01,126.39,0.02c0.02,1.01,0.03,2.02,0.05,3.04c0,0-0.06-0.03-0.06-0.03
		c-2.42,2.8-4.54,5.97-7.36,8.29C247.65,123.81,244.23,125.13,241.13,126.85z"/>
	<path class="st2" d="M160.52,237.99c10.78,8.14,21.57,16.27,32.34,24.42c0.47,0.36,0.88,0.8,1.32,1.21
		c-3.74,1.82-7.48,3.63-11.21,5.47c-1.6,0.79-3.16,1.65-4.74,2.48c-2.53,0.61-5.04,1.37-7.61,1.78c-2.28,0.37-3.96-0.65-5.38-2.64
		c-7.03-9.91-14.21-19.7-21.28-29.58c-0.61-0.85-0.76-2.03-1.13-3.06c3.06-0.62,6.15-1.12,9.17-1.89
		C155.22,235.37,157.97,236.07,160.52,237.99z"/>
	<path class="st1" d="M309.5,271.28c-1.68,1.3-3.34,2.64-5.05,3.91c-4.99,3.7-10.9,3.13-15.01-1.5c-1.75-1.97-3.36-4.07-4.98-6.15
		c-4.28-5.5-3.57-11.65,1.83-16.09c1.02-0.84,2.05-1.66,3.07-2.49C298.57,254.15,305.21,261.65,309.5,271.28z"/>
	<path class="st1" d="M100.37,248.96c1.23,1.06,2.47,2.1,3.68,3.19c4.33,3.91,5.04,9.86,1.62,14.58c-1.78,2.47-3.7,4.86-5.74,7.12
		c-4.06,4.49-9.93,4.99-14.82,1.38c-1.71-1.27-3.38-2.6-5.06-3.9C84.39,261.65,91.02,254.07,100.37,248.96z"/>
	<path class="st1" d="M131.82,113.31c3.37,7.16,10,10.31,16.58,13.52c-0.01,5.47,0.02,10.93-0.09,16.4
		c-0.02,0.99-0.63,1.98-0.97,2.97c-0.98-0.36-2.11-0.5-2.9-1.1c-3.77-2.88-8.04-4.13-12.71-4.24
		C131.76,131.67,131.79,122.49,131.82,113.31z"/>
	<path class="st1" d="M241.13,126.85c3.1-1.72,6.52-3.04,9.21-5.25c2.82-2.32,4.93-5.49,7.36-8.29c0.06,9.18,0.12,18.35,0.18,27.53
		c-4.77,0.15-9.16,1.35-12.97,4.41c-0.69,0.56-1.97,1.09-2.61,0.81c-0.62-0.27-1.06-1.61-1.08-2.49
		C241.11,138,241.14,132.42,241.13,126.85z"/>
	<path class="st4" d="M257.76,113.33c-0.02-1.01-0.03-2.02-0.05-3.04c0.2-0.13,0.4-0.26,0.6-0.4
		C258.13,111.04,257.94,112.19,257.76,113.33z"/>
	<path class="st3" d="M131.23,110.91c0.16,0.79,0.31,1.57,0.47,2.36C131.54,112.48,131.38,111.69,131.23,110.91z"/>
	<path class="st2" d="M142.84,311.27c3.86,0,7.72,0.07,11.58-0.02c2.54-0.06,3.77,0.91,3.72,3.56c-0.08,3.96-0.08,7.92,0,11.88
		c0.06,2.65-1.2,3.58-3.73,3.55c-7.72-0.07-15.44-0.07-23.15,0c-2.54,0.02-3.77-0.92-3.72-3.56c0.08-3.96,0.08-7.92,0-11.88
		c-0.06-2.65,1.19-3.61,3.73-3.55C135.12,311.33,138.98,311.27,142.84,311.27z"/>
	<path class="st2" d="M246.32,330.21c-3.86,0-7.72-0.03-11.58,0.01c-2.28,0.03-3.36-1-3.34-3.3c0.04-4.16,0.02-8.33,0.01-12.49
		c-0.01-2.14,1.01-3.17,3.16-3.17c8.12,0.01,16.25,0,24.37,0.01c1.98,0,3.02,0.99,3.02,2.98c0.01,4.16-0.04,8.33,0.02,12.49
		c0.04,2.44-1.03,3.52-3.48,3.49C254.45,330.16,250.38,330.21,246.32,330.21z"/>
</g>
</svg>
